<mxfile host="Electron" agent="Mozilla/5.0 (X11; Linux x86_64) AppleWebKit/537.36 (KHTML, like Gecko) draw.io/27.0.9 Chrome/134.0.6998.205 Electron/35.4.0 Safari/537.36" version="27.0.9">
  <diagram name="PÃ¡gina-1" id="vauJ-K1JWkv2jSBXTTIK">
    <mxGraphModel dx="2691" dy="1253" grid="0" gridSize="10" guides="1" tooltips="1" connect="1" arrows="1" fold="1" page="1" pageScale="1" pageWidth="827" pageHeight="1169" background="none" math="0" shadow="0" adaptiveColors="simple">
      <root>
        <mxCell id="0" />
        <mxCell id="1" parent="0" />
        <mxCell id="_monGCf5ujj0BCtjY-OE-161" style="edgeStyle=orthogonalEdgeStyle;rounded=0;hachureGap=4;orthogonalLoop=1;jettySize=auto;html=1;exitX=0;exitY=0.5;exitDx=0;exitDy=0;fontFamily=Architects Daughter;fontSource=https%3A%2F%2Ffonts.googleapis.com%2Fcss%3Ffamily%3DArchitects%2BDaughter;labelBackgroundColor=none;fontColor=default;" parent="1" source="_monGCf5ujj0BCtjY-OE-153" target="_monGCf5ujj0BCtjY-OE-159" edge="1">
          <mxGeometry relative="1" as="geometry" />
        </mxCell>
        <mxCell id="F6hMKLf_0vPhQ7OQ2Ecv-1" value="&lt;b&gt;&lt;font style=&quot;font-size: 13px;&quot;&gt;iii&lt;/font&gt;&lt;/b&gt;" style="edgeLabel;html=1;align=center;verticalAlign=middle;resizable=0;points=[];" parent="_monGCf5ujj0BCtjY-OE-161" vertex="1" connectable="0">
          <mxGeometry x="0.5182" y="-1" relative="1" as="geometry">
            <mxPoint as="offset" />
          </mxGeometry>
        </mxCell>
        <mxCell id="_monGCf5ujj0BCtjY-OE-153" value="3" style="html=1;overflow=block;blockSpacing=1;whiteSpace=wrap;ellipse;fontSize=10;align=center;spacing=3.8;strokeOpacity=100;rounded=0;absoluteArcSize=1;arcSize=9;strokeWidth=NaN;lucidId=2x7nmoQa2AxB;labelBackgroundColor=none;" parent="1" vertex="1">
          <mxGeometry x="292" y="1232" width="60" height="60" as="geometry" />
        </mxCell>
        <mxCell id="_monGCf5ujj0BCtjY-OE-360" style="edgeStyle=orthogonalEdgeStyle;rounded=0;hachureGap=4;orthogonalLoop=1;jettySize=auto;html=1;exitX=0.5;exitY=1;exitDx=0;exitDy=0;entryX=0;entryY=0.5;entryDx=0;entryDy=0;fontFamily=Architects Daughter;fontSource=https%3A%2F%2Ffonts.googleapis.com%2Fcss%3Ffamily%3DArchitects%2BDaughter;labelBackgroundColor=none;fontColor=default;" parent="1" source="_monGCf5ujj0BCtjY-OE-159" target="_monGCf5ujj0BCtjY-OE-351" edge="1">
          <mxGeometry relative="1" as="geometry" />
        </mxCell>
        <mxCell id="F6hMKLf_0vPhQ7OQ2Ecv-3" value="&lt;b&gt;&lt;font style=&quot;font-size: 13px;&quot;&gt;iv&lt;/font&gt;&lt;/b&gt;" style="edgeLabel;html=1;align=center;verticalAlign=middle;resizable=0;points=[];" parent="_monGCf5ujj0BCtjY-OE-360" vertex="1" connectable="0">
          <mxGeometry x="-0.9055" relative="1" as="geometry">
            <mxPoint as="offset" />
          </mxGeometry>
        </mxCell>
        <mxCell id="_monGCf5ujj0BCtjY-OE-159" value="4" style="html=1;overflow=block;blockSpacing=1;whiteSpace=wrap;ellipse;fontSize=10;align=center;spacing=3.8;strokeOpacity=100;rounded=0;absoluteArcSize=1;arcSize=9;strokeWidth=NaN;lucidId=2x7nmoQa2AxB;labelBackgroundColor=none;" parent="1" vertex="1">
          <mxGeometry x="117" y="1378" width="60" height="60" as="geometry" />
        </mxCell>
        <mxCell id="_monGCf5ujj0BCtjY-OE-163" value="5" style="html=1;overflow=block;blockSpacing=1;whiteSpace=wrap;ellipse;fontSize=10;align=center;spacing=3.8;strokeOpacity=100;rounded=0;absoluteArcSize=1;arcSize=9;strokeWidth=NaN;lucidId=er7n.wHx66S4;labelBackgroundColor=none;" parent="1" vertex="1">
          <mxGeometry x="468" y="1296" width="60" height="60" as="geometry" />
        </mxCell>
        <mxCell id="_monGCf5ujj0BCtjY-OE-164" value="" style="html=1;jettySize=18;whiteSpace=wrap;fontSize=13;strokeOpacity=100;strokeWidth=1.5;rounded=0;arcSize=12;edgeStyle=orthogonalEdgeStyle;startArrow=none;endArrow=block;endFill=1;exitX=0.5;exitY=1.013;exitPerimeter=0;entryX=0.5;entryY=-0.013;entryPerimeter=0;lucidId=gr7nAX82Irr~;labelBackgroundColor=none;fontColor=default;" parent="1" source="_monGCf5ujj0BCtjY-OE-163" target="_monGCf5ujj0BCtjY-OE-166" edge="1">
          <mxGeometry width="100" height="100" relative="1" as="geometry">
            <Array as="points" />
          </mxGeometry>
        </mxCell>
        <mxCell id="QhYaTNnM0dSVYR8I3ck6-7" value="&lt;b&gt;&lt;font style=&quot;font-size: 13px;&quot;&gt;vi&lt;/font&gt;&lt;/b&gt;" style="edgeLabel;html=1;align=center;verticalAlign=middle;resizable=0;points=[];" parent="_monGCf5ujj0BCtjY-OE-164" vertex="1" connectable="0">
          <mxGeometry x="-0.3617" y="1" relative="1" as="geometry">
            <mxPoint as="offset" />
          </mxGeometry>
        </mxCell>
        <mxCell id="_monGCf5ujj0BCtjY-OE-166" value="6" style="html=1;overflow=block;blockSpacing=1;whiteSpace=wrap;ellipse;fontSize=10;align=center;spacing=3.8;strokeOpacity=100;rounded=0;absoluteArcSize=1;arcSize=9;strokeWidth=NaN;lucidId=gr7n4lYt4T1x;labelBackgroundColor=none;" parent="1" vertex="1">
          <mxGeometry x="468" y="1386" width="60" height="60" as="geometry" />
        </mxCell>
        <mxCell id="_monGCf5ujj0BCtjY-OE-167" value="" style="html=1;jettySize=18;whiteSpace=wrap;fontSize=13;strokeOpacity=100;strokeWidth=1.5;rounded=0;arcSize=12;edgeStyle=orthogonalEdgeStyle;startArrow=none;endArrow=block;endFill=1;exitX=0.5;exitY=1.013;exitPerimeter=0;entryX=0.5;entryY=-0.013;entryPerimeter=0;lucidId=Tr7nbKWZ0~qz;labelBackgroundColor=none;fontColor=default;" parent="1" source="_monGCf5ujj0BCtjY-OE-166" target="_monGCf5ujj0BCtjY-OE-169" edge="1">
          <mxGeometry width="100" height="100" relative="1" as="geometry">
            <Array as="points" />
          </mxGeometry>
        </mxCell>
        <mxCell id="F6hMKLf_0vPhQ7OQ2Ecv-5" value="&lt;b&gt;&lt;font style=&quot;font-size: 13px;&quot;&gt;vii&lt;/font&gt;&lt;/b&gt;" style="edgeLabel;html=1;align=center;verticalAlign=middle;resizable=0;points=[];" parent="_monGCf5ujj0BCtjY-OE-167" vertex="1" connectable="0">
          <mxGeometry x="-0.3815" relative="1" as="geometry">
            <mxPoint as="offset" />
          </mxGeometry>
        </mxCell>
        <mxCell id="_monGCf5ujj0BCtjY-OE-169" value="7" style="html=1;overflow=block;blockSpacing=1;whiteSpace=wrap;ellipse;fontSize=10;align=center;spacing=3.8;strokeOpacity=100;rounded=0;absoluteArcSize=1;arcSize=9;strokeWidth=NaN;lucidId=Tr7n12R.XfZG;labelBackgroundColor=none;" parent="1" vertex="1">
          <mxGeometry x="468" y="1476" width="60" height="60" as="geometry" />
        </mxCell>
        <mxCell id="_monGCf5ujj0BCtjY-OE-170" value="" style="html=1;jettySize=18;whiteSpace=wrap;fontSize=13;strokeOpacity=100;strokeWidth=1.5;rounded=0;arcSize=12;edgeStyle=orthogonalEdgeStyle;startArrow=none;endArrow=block;endFill=1;exitX=0.5;exitY=1.013;exitPerimeter=0;entryX=0.5;entryY=-0.013;entryPerimeter=0;lucidId=Ws7nHzFQJizJ;labelBackgroundColor=none;fontColor=default;" parent="1" source="_monGCf5ujj0BCtjY-OE-169" target="_monGCf5ujj0BCtjY-OE-172" edge="1">
          <mxGeometry width="100" height="100" relative="1" as="geometry">
            <Array as="points" />
          </mxGeometry>
        </mxCell>
        <mxCell id="F6hMKLf_0vPhQ7OQ2Ecv-6" value="&lt;b&gt;&lt;font style=&quot;font-size: 13px;&quot;&gt;viii&lt;/font&gt;&lt;/b&gt;" style="edgeLabel;html=1;align=center;verticalAlign=middle;resizable=0;points=[];" parent="_monGCf5ujj0BCtjY-OE-170" vertex="1" connectable="0">
          <mxGeometry x="-0.5732" relative="1" as="geometry">
            <mxPoint as="offset" />
          </mxGeometry>
        </mxCell>
        <mxCell id="_monGCf5ujj0BCtjY-OE-172" value="8" style="html=1;overflow=block;blockSpacing=1;whiteSpace=wrap;ellipse;fontSize=10;align=center;spacing=3.8;strokeOpacity=100;rounded=0;absoluteArcSize=1;arcSize=9;strokeWidth=NaN;lucidId=Ws7nKWF0r7MZ;labelBackgroundColor=none;" parent="1" vertex="1">
          <mxGeometry x="468" y="1566" width="60" height="60" as="geometry" />
        </mxCell>
        <mxCell id="_monGCf5ujj0BCtjY-OE-173" value="" style="html=1;jettySize=18;whiteSpace=wrap;fontSize=13;strokeOpacity=100;strokeWidth=1.5;rounded=0;arcSize=12;edgeStyle=orthogonalEdgeStyle;startArrow=none;endArrow=block;endFill=1;exitX=0.5;exitY=1.013;exitPerimeter=0;entryX=0.5;entryY=-0.013;entryPerimeter=0;lucidId=4s7nOA23c9Lb;labelBackgroundColor=none;fontColor=default;" parent="1" source="_monGCf5ujj0BCtjY-OE-172" target="_monGCf5ujj0BCtjY-OE-175" edge="1">
          <mxGeometry width="100" height="100" relative="1" as="geometry">
            <Array as="points" />
          </mxGeometry>
        </mxCell>
        <mxCell id="F6hMKLf_0vPhQ7OQ2Ecv-7" value="&lt;b&gt;&lt;font style=&quot;font-size: 13px;&quot;&gt;ix&lt;/font&gt;&lt;/b&gt;" style="edgeLabel;html=1;align=center;verticalAlign=middle;resizable=0;points=[];" parent="_monGCf5ujj0BCtjY-OE-173" vertex="1" connectable="0">
          <mxGeometry x="-0.2962" relative="1" as="geometry">
            <mxPoint as="offset" />
          </mxGeometry>
        </mxCell>
        <mxCell id="_monGCf5ujj0BCtjY-OE-175" value="9" style="html=1;overflow=block;blockSpacing=1;whiteSpace=wrap;ellipse;fontSize=10;align=center;spacing=3.8;strokeOpacity=100;rounded=0;absoluteArcSize=1;arcSize=9;strokeWidth=NaN;lucidId=4s7nlr1gQl5S;labelBackgroundColor=none;" parent="1" vertex="1">
          <mxGeometry x="468" y="1656" width="60" height="60" as="geometry" />
        </mxCell>
        <mxCell id="_monGCf5ujj0BCtjY-OE-176" value="" style="html=1;jettySize=18;whiteSpace=wrap;fontSize=13;strokeOpacity=100;strokeWidth=1.5;rounded=0;arcSize=12;edgeStyle=orthogonalEdgeStyle;startArrow=none;endArrow=block;endFill=1;exitX=0.5;exitY=1.013;exitPerimeter=0;entryX=0.5;entryY=-0.013;entryPerimeter=0;lucidId=-s7nuru1Xb1R;labelBackgroundColor=none;fontColor=default;" parent="1" source="_monGCf5ujj0BCtjY-OE-175" target="_monGCf5ujj0BCtjY-OE-178" edge="1">
          <mxGeometry width="100" height="100" relative="1" as="geometry">
            <Array as="points" />
          </mxGeometry>
        </mxCell>
        <mxCell id="F6hMKLf_0vPhQ7OQ2Ecv-8" value="&lt;b&gt;&lt;font style=&quot;font-size: 13px;&quot;&gt;x&lt;/font&gt;&lt;/b&gt;" style="edgeLabel;html=1;align=center;verticalAlign=middle;resizable=0;points=[];" parent="_monGCf5ujj0BCtjY-OE-176" vertex="1" connectable="0">
          <mxGeometry x="-0.6159" y="-1" relative="1" as="geometry">
            <mxPoint as="offset" />
          </mxGeometry>
        </mxCell>
        <mxCell id="_monGCf5ujj0BCtjY-OE-178" value="10" style="html=1;overflow=block;blockSpacing=1;whiteSpace=wrap;ellipse;fontSize=10;align=center;spacing=3.8;strokeOpacity=100;rounded=0;absoluteArcSize=1;arcSize=9;strokeWidth=NaN;lucidId=-s7nFN4nopYL;labelBackgroundColor=none;" parent="1" vertex="1">
          <mxGeometry x="468" y="1746" width="60" height="60" as="geometry" />
        </mxCell>
        <mxCell id="_monGCf5ujj0BCtjY-OE-179" value="" style="html=1;jettySize=18;whiteSpace=wrap;fontSize=13;strokeOpacity=100;strokeWidth=1.5;rounded=0;arcSize=12;edgeStyle=orthogonalEdgeStyle;startArrow=none;endArrow=block;endFill=1;exitX=0.5;exitY=1.013;exitPerimeter=0;entryX=0.5;entryY=-0.013;entryPerimeter=0;lucidId=at7nd8NEkhZJ;labelBackgroundColor=none;fontColor=default;" parent="1" source="_monGCf5ujj0BCtjY-OE-178" target="_monGCf5ujj0BCtjY-OE-181" edge="1">
          <mxGeometry width="100" height="100" relative="1" as="geometry">
            <Array as="points" />
          </mxGeometry>
        </mxCell>
        <mxCell id="F6hMKLf_0vPhQ7OQ2Ecv-9" value="&lt;b&gt;&lt;font style=&quot;font-size: 13px;&quot;&gt;xi&lt;/font&gt;&lt;/b&gt;" style="edgeLabel;html=1;align=center;verticalAlign=middle;resizable=0;points=[];" parent="_monGCf5ujj0BCtjY-OE-179" vertex="1" connectable="0">
          <mxGeometry x="-0.5093" relative="1" as="geometry">
            <mxPoint as="offset" />
          </mxGeometry>
        </mxCell>
        <mxCell id="_monGCf5ujj0BCtjY-OE-181" value="11" style="html=1;overflow=block;blockSpacing=1;whiteSpace=wrap;ellipse;fontSize=10;align=center;spacing=3.8;strokeOpacity=100;rounded=0;absoluteArcSize=1;arcSize=9;strokeWidth=NaN;lucidId=at7n2IR1nz86;labelBackgroundColor=none;" parent="1" vertex="1">
          <mxGeometry x="468" y="1836" width="60" height="60" as="geometry" />
        </mxCell>
        <mxCell id="_monGCf5ujj0BCtjY-OE-182" value="" style="html=1;jettySize=18;whiteSpace=wrap;fontSize=13;strokeOpacity=100;strokeWidth=1.5;rounded=0;arcSize=12;edgeStyle=orthogonalEdgeStyle;startArrow=none;endArrow=block;endFill=1;exitX=0.5;exitY=1.013;exitPerimeter=0;entryX=0.5;entryY=-0.013;entryPerimeter=0;lucidId=st7nROfuym9G;labelBackgroundColor=none;fontColor=default;" parent="1" source="_monGCf5ujj0BCtjY-OE-181" target="_monGCf5ujj0BCtjY-OE-184" edge="1">
          <mxGeometry width="100" height="100" relative="1" as="geometry">
            <Array as="points" />
          </mxGeometry>
        </mxCell>
        <mxCell id="F6hMKLf_0vPhQ7OQ2Ecv-11" value="&lt;b&gt;&lt;font style=&quot;font-size: 13px;&quot;&gt;xii&lt;/font&gt;&lt;/b&gt;" style="edgeLabel;html=1;align=center;verticalAlign=middle;resizable=0;points=[];" parent="_monGCf5ujj0BCtjY-OE-182" vertex="1" connectable="0">
          <mxGeometry x="-0.3601" y="-1" relative="1" as="geometry">
            <mxPoint as="offset" />
          </mxGeometry>
        </mxCell>
        <mxCell id="_monGCf5ujj0BCtjY-OE-184" value="12" style="html=1;overflow=block;blockSpacing=1;whiteSpace=wrap;ellipse;fontSize=10;align=center;spacing=3.8;strokeOpacity=100;rounded=0;absoluteArcSize=1;arcSize=9;strokeWidth=NaN;lucidId=rt7nD08MM-FN;labelBackgroundColor=none;" parent="1" vertex="1">
          <mxGeometry x="468" y="1926" width="60" height="60" as="geometry" />
        </mxCell>
        <mxCell id="_monGCf5ujj0BCtjY-OE-187" style="edgeStyle=orthogonalEdgeStyle;rounded=0;hachureGap=4;orthogonalLoop=1;jettySize=auto;html=1;exitX=1;exitY=0.5;exitDx=0;exitDy=0;entryX=0.443;entryY=-0.015;entryDx=0;entryDy=0;entryPerimeter=0;fontFamily=Architects Daughter;fontSource=https%3A%2F%2Ffonts.googleapis.com%2Fcss%3Ffamily%3DArchitects%2BDaughter;labelBackgroundColor=none;fontColor=default;" parent="1" source="_monGCf5ujj0BCtjY-OE-153" target="_monGCf5ujj0BCtjY-OE-163" edge="1">
          <mxGeometry relative="1" as="geometry" />
        </mxCell>
        <mxCell id="F6hMKLf_0vPhQ7OQ2Ecv-2" value="&lt;b&gt;&lt;font style=&quot;font-size: 13px;&quot;&gt;v&lt;/font&gt;&lt;/b&gt;" style="edgeLabel;html=1;align=center;verticalAlign=middle;resizable=0;points=[];" parent="_monGCf5ujj0BCtjY-OE-187" vertex="1" connectable="0">
          <mxGeometry x="0.7232" y="-2" relative="1" as="geometry">
            <mxPoint as="offset" />
          </mxGeometry>
        </mxCell>
        <mxCell id="_monGCf5ujj0BCtjY-OE-224" style="edgeStyle=orthogonalEdgeStyle;rounded=0;hachureGap=4;orthogonalLoop=1;jettySize=auto;html=1;exitX=0.5;exitY=1;exitDx=0;exitDy=0;entryX=0.5;entryY=0;entryDx=0;entryDy=0;fontFamily=Architects Daughter;fontSource=https%3A%2F%2Ffonts.googleapis.com%2Fcss%3Ffamily%3DArchitects%2BDaughter;labelBackgroundColor=none;fontColor=default;" parent="1" source="_monGCf5ujj0BCtjY-OE-192" target="_monGCf5ujj0BCtjY-OE-215" edge="1">
          <mxGeometry relative="1" as="geometry" />
        </mxCell>
        <mxCell id="_monGCf5ujj0BCtjY-OE-243" value="&lt;span style=&quot;color: rgba(0, 0, 0, 0); font-family: monospace; font-size: 0px; text-align: start; background-color: rgb(236, 236, 236);&quot;&gt;%3CmxGraphModel%3E%3Croot%3E%3CmxCell%20id%3D%220%22%2F%3E%3CmxCell%20id%3D%221%22%20parent%3D%220%22%2F%3E%3CmxCell%20id%3D%222%22%20value%3D%2248%22%20style%3D%22html%3D1%3Boverflow%3Dblock%3BblockSpacing%3D1%3BwhiteSpace%3Dwrap%3Bellipse%3BfontSize%3D10%3Balign%3Dcenter%3Bspacing%3D3.8%3BstrokeOpacity%3D100%3Brounded%3D0%3BabsoluteArcSize%3D1%3BarcSize%3D9%3BfillColor%3D%23unset%3BstrokeWidth%3DNaN%3BlucidId%3Drt7nD08MM-FN%3Bsketch%3D1%3BcurveFitting%3D1%3Bjiggle%3D2%3B%22%20vertex%3D%221%22%20parent%3D%221%22%3E%3CmxGeometry%20x%3D%22507%22%20y%3D%223570%22%20width%3D%2260%22%20height%3D%2260%22%20as%3D%22geometry%22%2F%3E%3C%2FmxCell%3E%3CmxCell%20id%3D%223%22%20value%3D%2249%22%20style%3D%22html%3D1%3Boverflow%3Dblock%3BblockSpacing%3D1%3BwhiteSpace%3Dwrap%3Bellipse%3BfontSize%3D10%3Balign%3Dcenter%3Bspacing%3D3.8%3BstrokeOpacity%3D100%3Brounded%3D0%3BabsoluteArcSize%3D1%3BarcSize%3D9%3BfillColor%3D%23unset%3BstrokeWidth%3DNaN%3BlucidId%3D2x7nmoQa2AxB%3Bsketch%3D1%3BcurveFitting%3D1%3Bjiggle%3D2%3B%22%20vertex%3D%221%22%20parent%3D%221%22%3E%3CmxGeometry%20x%3D%22447%22%20y%3D%223641%22%20width%3D%2260%22%20height%3D%2260%22%20as%3D%22geometry%22%2F%3E%3C%2FmxCell%3E%3CmxCell%20id%3D%224%22%20value%3D%2250%22%20style%3D%22html%3D1%3Boverflow%3Dblock%3BblockSpacing%3D1%3BwhiteSpace%3Dwrap%3Bellipse%3BfontSize%3D10%3Balign%3Dcenter%3Bspacing%3D3.8%3BstrokeOpacity%3D100%3Brounded%3D0%3BabsoluteArcSize%3D1%3BarcSize%3D9%3BfillColor%3D%23unset%3BstrokeWidth%3DNaN%3BlucidId%3D2x7nmoQa2AxB%3Bsketch%3D1%3BcurveFitting%3D1%3Bjiggle%3D2%3B%22%20vertex%3D%221%22%20parent%3D%221%22%3E%3CmxGeometry%20x%3D%22567%22%20y%3D%223641%22%20width%3D%2260%22%20height%3D%2260%22%20as%3D%22geometry%22%2F%3E%3C%2FmxCell%3E%3CmxCell%20id%3D%225%22%20style%3D%22edgeStyle%3DorthogonalEdgeStyle%3Brounded%3D0%3Bsketch%3D1%3BhachureGap%3D4%3Bjiggle%3D2%3BcurveFitting%3D1%3BorthogonalLoop%3D1%3BjettySize%3Dauto%3Bhtml%3D1%3BexitX%3D0%3BexitY%3D0.5%3BexitDx%3D0%3BexitDy%3D0%3BentryX%3D0.456%3BentryY%3D0.014%3BentryDx%3D0%3BentryDy%3D0%3BentryPerimeter%3D0%3BfontFamily%3DArchitects%20Daughter%3BfontSource%3Dhttps%253A%252F%252Ffonts.googleapis.com%252Fcss%253Ffamily%253DArchitects%252BDaughter%3B%22%20edge%3D%221%22%20source%3D%222%22%20target%3D%223%22%20parent%3D%221%22%3E%3CmxGeometry%20relative%3D%221%22%20as%3D%22geometry%22%2F%3E%3C%2FmxCell%3E%3CmxCell%20id%3D%226%22%20value%3D%22%26lt%3Bfont%20style%3D%26quot%3Bfont-size%3A%2013px%3B%26quot%3B%26gt%3B%26lt%3Bb%26gt%3BLI%26lt%3B%2Fb%26gt%3B%26lt%3B%2Ffont%26gt%3B%22%20style%3D%22edgeLabel%3Bhtml%3D1%3Balign%3Dcenter%3BverticalAlign%3Dmiddle%3Bresizable%3D0%3Bpoints%3D%5B%5D%3Bsketch%3D1%3BhachureGap%3D4%3Bjiggle%3D2%3BcurveFitting%3D1%3BfontFamily%3DArchitects%20Daughter%3BfontSource%3Dhttps%253A%252F%252Ffonts.googleapis.com%252Fcss%253Ffamily%253DArchitects%252BDaughter%3B%22%20vertex%3D%221%22%20connectable%3D%220%22%20parent%3D%225%22%3E%3CmxGeometry%20x%3D%220.258%22%20relative%3D%221%22%20as%3D%22geometry%22%3E%3CmxPoint%20as%3D%22offset%22%2F%3E%3C%2FmxGeometry%3E%3C%2FmxCell%3E%3CmxCell%20id%3D%227%22%20style%3D%22edgeStyle%3DorthogonalEdgeStyle%3Brounded%3D0%3Bsketch%3D1%3BhachureGap%3D4%3Bjiggle%3D2%3BcurveFitting%3D1%3BorthogonalLoop%3D1%3BjettySize%3Dauto%3Bhtml%3D1%3BexitX%3D1%3BexitY%3D0.5%3BexitDx%3D0%3BexitDy%3D0%3BentryX%3D0.513%3BentryY%3D-0.027%3BentryDx%3D0%3BentryDy%3D0%3BentryPerimeter%3D0%3BfontFamily%3DArchitects%20Daughter%3BfontSource%3Dhttps%253A%252F%252Ffonts.googleapis.com%252Fcss%253Ffamily%253DArchitects%252BDaughter%3B%22%20edge%3D%221%22%20source%3D%222%22%20target%3D%224%22%20parent%3D%221%22%3E%3CmxGeometry%20relative%3D%221%22%20as%3D%22geometry%22%2F%3E%3C%2FmxCell%3E%3CmxCell%20id%3D%228%22%20value%3D%22%26lt%3Bspan%20style%3D%26quot%3Bfont-size%3A%2013px%3B%26quot%3B%26gt%3B%26lt%3Bb%26gt%3BLII%26lt%3B%2Fb%26gt%3B%26lt%3B%2Fspan%26gt%3B%22%20style%3D%22edgeLabel%3Bhtml%3D1%3Balign%3Dcenter%3BverticalAlign%3Dmiddle%3Bresizable%3D0%3Bpoints%3D%5B%5D%3Bsketch%3D1%3BhachureGap%3D4%3Bjiggle%3D2%3BcurveFitting%3D1%3BfontFamily%3DArchitects%20Daughter%3BfontSource%3Dhttps%253A%252F%252Ffonts.googleapis.com%252Fcss%253Ffamily%253DArchitects%252BDaughter%3B%22%20vertex%3D%221%22%20connectable%3D%220%22%20parent%3D%227%22%3E%3CmxGeometry%20x%3D%220.3984%22%20y%3D%221%22%20relative%3D%221%22%20as%3D%22geometry%22%3E%3CmxPoint%20as%3D%22offset%22%2F%3E%3C%2FmxGeometry%3E%3C%2FmxCell%3E%3C%2Froot%3E%3C%2FmxGraphModel%3&lt;/span&gt;" style="edgeLabel;html=1;align=center;verticalAlign=middle;resizable=0;points=[];hachureGap=4;fontFamily=Architects Daughter;fontSource=https%3A%2F%2Ffonts.googleapis.com%2Fcss%3Ffamily%3DArchitects%2BDaughter;labelBackgroundColor=none;" parent="_monGCf5ujj0BCtjY-OE-224" vertex="1" connectable="0">
          <mxGeometry x="-0.1621" y="-3" relative="1" as="geometry">
            <mxPoint as="offset" />
          </mxGeometry>
        </mxCell>
        <mxCell id="F6hMKLf_0vPhQ7OQ2Ecv-13" value="&lt;b&gt;&lt;font style=&quot;font-size: 13px;&quot;&gt;xiv&lt;/font&gt;&lt;/b&gt;" style="edgeLabel;html=1;align=center;verticalAlign=middle;resizable=0;points=[];" parent="_monGCf5ujj0BCtjY-OE-224" vertex="1" connectable="0">
          <mxGeometry x="-0.7927" relative="1" as="geometry">
            <mxPoint as="offset" />
          </mxGeometry>
        </mxCell>
        <mxCell id="_monGCf5ujj0BCtjY-OE-192" value="13" style="html=1;overflow=block;blockSpacing=1;whiteSpace=wrap;ellipse;fontSize=10;align=center;spacing=3.8;strokeOpacity=100;rounded=0;absoluteArcSize=1;arcSize=9;strokeWidth=NaN;lucidId=2x7nmoQa2AxB;labelBackgroundColor=none;" parent="1" vertex="1">
          <mxGeometry x="408" y="1997" width="60" height="60" as="geometry" />
        </mxCell>
        <mxCell id="_monGCf5ujj0BCtjY-OE-225" style="edgeStyle=orthogonalEdgeStyle;rounded=0;hachureGap=4;orthogonalLoop=1;jettySize=auto;html=1;exitX=0.5;exitY=1;exitDx=0;exitDy=0;fontFamily=Architects Daughter;fontSource=https%3A%2F%2Ffonts.googleapis.com%2Fcss%3Ffamily%3DArchitects%2BDaughter;labelBackgroundColor=none;fontColor=default;" parent="1" source="_monGCf5ujj0BCtjY-OE-193" edge="1">
          <mxGeometry relative="1" as="geometry">
            <mxPoint x="504.66666666666674" y="2100" as="targetPoint" />
          </mxGeometry>
        </mxCell>
        <mxCell id="F6hMKLf_0vPhQ7OQ2Ecv-15" value="&lt;b&gt;&lt;font style=&quot;font-size: 13px;&quot;&gt;xvi&lt;/font&gt;&lt;/b&gt;" style="edgeLabel;html=1;align=center;verticalAlign=middle;resizable=0;points=[];" parent="_monGCf5ujj0BCtjY-OE-225" vertex="1" connectable="0">
          <mxGeometry x="-0.764" y="2" relative="1" as="geometry">
            <mxPoint as="offset" />
          </mxGeometry>
        </mxCell>
        <mxCell id="_monGCf5ujj0BCtjY-OE-193" value="14" style="html=1;overflow=block;blockSpacing=1;whiteSpace=wrap;ellipse;fontSize=10;align=center;spacing=3.8;strokeOpacity=100;rounded=0;absoluteArcSize=1;arcSize=9;strokeWidth=NaN;lucidId=2x7nmoQa2AxB;labelBackgroundColor=none;" parent="1" vertex="1">
          <mxGeometry x="528" y="1997" width="60" height="60" as="geometry" />
        </mxCell>
        <mxCell id="_monGCf5ujj0BCtjY-OE-194" style="edgeStyle=orthogonalEdgeStyle;rounded=0;hachureGap=4;orthogonalLoop=1;jettySize=auto;html=1;exitX=0;exitY=0.5;exitDx=0;exitDy=0;entryX=0.456;entryY=0.014;entryDx=0;entryDy=0;entryPerimeter=0;fontFamily=Architects Daughter;fontSource=https%3A%2F%2Ffonts.googleapis.com%2Fcss%3Ffamily%3DArchitects%2BDaughter;labelBackgroundColor=none;fontColor=default;" parent="1" source="_monGCf5ujj0BCtjY-OE-184" target="_monGCf5ujj0BCtjY-OE-192" edge="1">
          <mxGeometry relative="1" as="geometry" />
        </mxCell>
        <mxCell id="F6hMKLf_0vPhQ7OQ2Ecv-10" value="&lt;b&gt;&lt;font style=&quot;font-size: 13px;&quot;&gt;xiii&lt;/font&gt;&lt;/b&gt;" style="edgeLabel;html=1;align=center;verticalAlign=middle;resizable=0;points=[];" parent="_monGCf5ujj0BCtjY-OE-194" vertex="1" connectable="0">
          <mxGeometry x="0.353" relative="1" as="geometry">
            <mxPoint as="offset" />
          </mxGeometry>
        </mxCell>
        <mxCell id="_monGCf5ujj0BCtjY-OE-195" style="edgeStyle=orthogonalEdgeStyle;rounded=0;hachureGap=4;orthogonalLoop=1;jettySize=auto;html=1;exitX=1;exitY=0.5;exitDx=0;exitDy=0;entryX=0.513;entryY=-0.027;entryDx=0;entryDy=0;entryPerimeter=0;fontFamily=Architects Daughter;fontSource=https%3A%2F%2Ffonts.googleapis.com%2Fcss%3Ffamily%3DArchitects%2BDaughter;labelBackgroundColor=none;fontColor=default;" parent="1" source="_monGCf5ujj0BCtjY-OE-184" target="_monGCf5ujj0BCtjY-OE-193" edge="1">
          <mxGeometry relative="1" as="geometry" />
        </mxCell>
        <mxCell id="F6hMKLf_0vPhQ7OQ2Ecv-14" value="&lt;b&gt;&lt;font style=&quot;font-size: 13px;&quot;&gt;xv&lt;/font&gt;&lt;/b&gt;" style="edgeLabel;html=1;align=center;verticalAlign=middle;resizable=0;points=[];" parent="_monGCf5ujj0BCtjY-OE-195" vertex="1" connectable="0">
          <mxGeometry x="0.401" relative="1" as="geometry">
            <mxPoint as="offset" />
          </mxGeometry>
        </mxCell>
        <mxCell id="_monGCf5ujj0BCtjY-OE-213" style="edgeStyle=orthogonalEdgeStyle;rounded=0;hachureGap=4;orthogonalLoop=1;jettySize=auto;html=1;exitX=1;exitY=0.5;exitDx=0;exitDy=0;entryX=0.5;entryY=0;entryDx=0;entryDy=0;fontFamily=Architects Daughter;fontSource=https%3A%2F%2Ffonts.googleapis.com%2Fcss%3Ffamily%3DArchitects%2BDaughter;labelBackgroundColor=none;fontColor=default;" parent="1" source="_monGCf5ujj0BCtjY-OE-215" target="_monGCf5ujj0BCtjY-OE-216" edge="1">
          <mxGeometry relative="1" as="geometry" />
        </mxCell>
        <mxCell id="F6hMKLf_0vPhQ7OQ2Ecv-17" value="&lt;b&gt;&lt;font style=&quot;font-size: 13px;&quot;&gt;xviii&lt;/font&gt;&lt;/b&gt;" style="edgeLabel;html=1;align=center;verticalAlign=middle;resizable=0;points=[];" parent="_monGCf5ujj0BCtjY-OE-213" vertex="1" connectable="0">
          <mxGeometry x="0.4813" relative="1" as="geometry">
            <mxPoint as="offset" />
          </mxGeometry>
        </mxCell>
        <mxCell id="_monGCf5ujj0BCtjY-OE-240" style="edgeStyle=orthogonalEdgeStyle;rounded=0;hachureGap=4;orthogonalLoop=1;jettySize=auto;html=1;exitX=0;exitY=0.5;exitDx=0;exitDy=0;entryX=0.5;entryY=0;entryDx=0;entryDy=0;fontFamily=Architects Daughter;fontSource=https%3A%2F%2Ffonts.googleapis.com%2Fcss%3Ffamily%3DArchitects%2BDaughter;labelBackgroundColor=none;fontColor=default;" parent="1" source="_monGCf5ujj0BCtjY-OE-215" target="_monGCf5ujj0BCtjY-OE-228" edge="1">
          <mxGeometry relative="1" as="geometry">
            <Array as="points">
              <mxPoint x="455" y="2129" />
              <mxPoint x="455" y="2472" />
            </Array>
          </mxGeometry>
        </mxCell>
        <mxCell id="F6hMKLf_0vPhQ7OQ2Ecv-16" value="&lt;b&gt;&lt;font style=&quot;font-size: 13px;&quot;&gt;xvii&lt;/font&gt;&lt;/b&gt;" style="edgeLabel;html=1;align=center;verticalAlign=middle;resizable=0;points=[];" parent="_monGCf5ujj0BCtjY-OE-240" vertex="1" connectable="0">
          <mxGeometry x="-0.0085" y="-1" relative="1" as="geometry">
            <mxPoint as="offset" />
          </mxGeometry>
        </mxCell>
        <mxCell id="_monGCf5ujj0BCtjY-OE-215" value="15" style="html=1;overflow=block;blockSpacing=1;whiteSpace=wrap;ellipse;fontSize=10;align=center;spacing=3.8;strokeOpacity=100;rounded=0;absoluteArcSize=1;arcSize=9;strokeWidth=NaN;lucidId=2x7nmoQa2AxB;labelBackgroundColor=none;" parent="1" vertex="1">
          <mxGeometry x="475" y="2099" width="60" height="60" as="geometry" />
        </mxCell>
        <mxCell id="_monGCf5ujj0BCtjY-OE-216" value="16" style="html=1;overflow=block;blockSpacing=1;whiteSpace=wrap;ellipse;fontSize=10;align=center;spacing=3.8;strokeOpacity=100;rounded=0;absoluteArcSize=1;arcSize=9;strokeWidth=NaN;lucidId=2x7ncxspwqkf;labelBackgroundColor=none;" parent="1" vertex="1">
          <mxGeometry x="576" y="2175" width="60" height="60" as="geometry" />
        </mxCell>
        <mxCell id="_monGCf5ujj0BCtjY-OE-217" value="" style="html=1;jettySize=18;whiteSpace=wrap;fontSize=13;strokeOpacity=100;strokeWidth=1.5;rounded=0;arcSize=12;edgeStyle=orthogonalEdgeStyle;startArrow=none;endArrow=block;endFill=1;exitX=0.5;exitY=1.013;exitPerimeter=0;entryX=0.5;entryY=-0.013;entryPerimeter=0;lucidId=2x7npBRpC46o;labelBackgroundColor=none;fontColor=default;" parent="1" source="_monGCf5ujj0BCtjY-OE-216" target="_monGCf5ujj0BCtjY-OE-219" edge="1">
          <mxGeometry width="100" height="100" relative="1" as="geometry">
            <Array as="points" />
          </mxGeometry>
        </mxCell>
        <mxCell id="F6hMKLf_0vPhQ7OQ2Ecv-19" value="&lt;b&gt;&lt;font style=&quot;font-size: 13px;&quot;&gt;xix&lt;/font&gt;&lt;/b&gt;" style="edgeLabel;html=1;align=center;verticalAlign=middle;resizable=0;points=[];" parent="_monGCf5ujj0BCtjY-OE-217" vertex="1" connectable="0">
          <mxGeometry x="-0.2898" relative="1" as="geometry">
            <mxPoint as="offset" />
          </mxGeometry>
        </mxCell>
        <mxCell id="_monGCf5ujj0BCtjY-OE-219" value="17" style="html=1;overflow=block;blockSpacing=1;whiteSpace=wrap;ellipse;fontSize=10;align=center;spacing=3.8;strokeOpacity=100;rounded=0;absoluteArcSize=1;arcSize=9;strokeWidth=NaN;lucidId=2x7ngQ7Cr0PR;labelBackgroundColor=none;" parent="1" vertex="1">
          <mxGeometry x="576" y="2265" width="60" height="60" as="geometry" />
        </mxCell>
        <mxCell id="_monGCf5ujj0BCtjY-OE-220" value="" style="html=1;jettySize=18;whiteSpace=wrap;fontSize=13;strokeOpacity=100;strokeWidth=1.5;rounded=0;arcSize=12;edgeStyle=orthogonalEdgeStyle;startArrow=none;endArrow=block;endFill=1;exitX=0.5;exitY=1.013;exitPerimeter=0;entryX=0.5;entryY=-0.013;entryPerimeter=0;lucidId=2x7niNCqRLbD;labelBackgroundColor=none;fontColor=default;" parent="1" source="_monGCf5ujj0BCtjY-OE-219" target="_monGCf5ujj0BCtjY-OE-223" edge="1">
          <mxGeometry width="100" height="100" relative="1" as="geometry">
            <Array as="points" />
          </mxGeometry>
        </mxCell>
        <mxCell id="F6hMKLf_0vPhQ7OQ2Ecv-20" value="&lt;b&gt;&lt;font style=&quot;font-size: 13px;&quot;&gt;xx&lt;/font&gt;&lt;/b&gt;" style="edgeLabel;html=1;align=center;verticalAlign=middle;resizable=0;points=[];" parent="_monGCf5ujj0BCtjY-OE-220" vertex="1" connectable="0">
          <mxGeometry x="-0.4816" y="1" relative="1" as="geometry">
            <mxPoint as="offset" />
          </mxGeometry>
        </mxCell>
        <mxCell id="_monGCf5ujj0BCtjY-OE-239" style="edgeStyle=orthogonalEdgeStyle;rounded=0;hachureGap=4;orthogonalLoop=1;jettySize=auto;html=1;exitX=0.5;exitY=1;exitDx=0;exitDy=0;entryX=0.5;entryY=0;entryDx=0;entryDy=0;fontFamily=Architects Daughter;fontSource=https%3A%2F%2Ffonts.googleapis.com%2Fcss%3Ffamily%3DArchitects%2BDaughter;labelBackgroundColor=none;fontColor=default;" parent="1" source="_monGCf5ujj0BCtjY-OE-223" target="_monGCf5ujj0BCtjY-OE-228" edge="1">
          <mxGeometry relative="1" as="geometry" />
        </mxCell>
        <mxCell id="F6hMKLf_0vPhQ7OQ2Ecv-21" value="&lt;b&gt;&lt;font style=&quot;font-size: 13px;&quot;&gt;xxi&lt;/font&gt;&lt;/b&gt;" style="edgeLabel;html=1;align=center;verticalAlign=middle;resizable=0;points=[];" parent="_monGCf5ujj0BCtjY-OE-239" vertex="1" connectable="0">
          <mxGeometry x="-0.8392" y="-1" relative="1" as="geometry">
            <mxPoint as="offset" />
          </mxGeometry>
        </mxCell>
        <mxCell id="_monGCf5ujj0BCtjY-OE-223" value="18" style="html=1;overflow=block;blockSpacing=1;whiteSpace=wrap;ellipse;fontSize=10;align=center;spacing=3.8;strokeOpacity=100;rounded=0;absoluteArcSize=1;arcSize=9;strokeWidth=NaN;lucidId=2x7nmoQa2AxB;labelBackgroundColor=none;" parent="1" vertex="1">
          <mxGeometry x="576" y="2355" width="60" height="60" as="geometry" />
        </mxCell>
        <mxCell id="_monGCf5ujj0BCtjY-OE-228" value="19" style="html=1;overflow=block;blockSpacing=1;whiteSpace=wrap;ellipse;fontSize=10;align=center;spacing=3.8;strokeOpacity=100;rounded=0;absoluteArcSize=1;arcSize=9;strokeWidth=NaN;lucidId=Ws7nKWF0r7MZ;labelBackgroundColor=none;" parent="1" vertex="1">
          <mxGeometry x="475" y="2472" width="60" height="60" as="geometry" />
        </mxCell>
        <mxCell id="_monGCf5ujj0BCtjY-OE-229" value="" style="html=1;jettySize=18;whiteSpace=wrap;fontSize=13;strokeOpacity=100;strokeWidth=1.5;rounded=0;arcSize=12;edgeStyle=orthogonalEdgeStyle;startArrow=none;endArrow=block;endFill=1;exitX=0.5;exitY=1.013;exitPerimeter=0;entryX=0.5;entryY=-0.013;entryPerimeter=0;lucidId=4s7nOA23c9Lb;labelBackgroundColor=none;fontColor=default;" parent="1" source="_monGCf5ujj0BCtjY-OE-228" target="_monGCf5ujj0BCtjY-OE-231" edge="1">
          <mxGeometry width="100" height="100" relative="1" as="geometry">
            <Array as="points" />
          </mxGeometry>
        </mxCell>
        <mxCell id="F6hMKLf_0vPhQ7OQ2Ecv-23" value="&lt;b&gt;&lt;font style=&quot;font-size: 13px;&quot;&gt;xxii&lt;/font&gt;&lt;/b&gt;" style="edgeLabel;html=1;align=center;verticalAlign=middle;resizable=0;points=[];" parent="_monGCf5ujj0BCtjY-OE-229" vertex="1" connectable="0">
          <mxGeometry x="-0.2493" y="-2" relative="1" as="geometry">
            <mxPoint as="offset" />
          </mxGeometry>
        </mxCell>
        <mxCell id="_monGCf5ujj0BCtjY-OE-231" value="20" style="html=1;overflow=block;blockSpacing=1;whiteSpace=wrap;ellipse;fontSize=10;align=center;spacing=3.8;strokeOpacity=100;rounded=0;absoluteArcSize=1;arcSize=9;strokeWidth=NaN;lucidId=4s7nlr1gQl5S;labelBackgroundColor=none;" parent="1" vertex="1">
          <mxGeometry x="475" y="2562" width="60" height="60" as="geometry" />
        </mxCell>
        <mxCell id="_monGCf5ujj0BCtjY-OE-232" value="" style="html=1;jettySize=18;whiteSpace=wrap;fontSize=13;strokeOpacity=100;strokeWidth=1.5;rounded=0;arcSize=12;edgeStyle=orthogonalEdgeStyle;startArrow=none;endArrow=block;endFill=1;exitX=0.5;exitY=1.013;exitPerimeter=0;entryX=0.5;entryY=-0.013;entryPerimeter=0;lucidId=-s7nuru1Xb1R;labelBackgroundColor=none;fontColor=default;" parent="1" source="_monGCf5ujj0BCtjY-OE-231" target="_monGCf5ujj0BCtjY-OE-234" edge="1">
          <mxGeometry width="100" height="100" relative="1" as="geometry">
            <Array as="points" />
          </mxGeometry>
        </mxCell>
        <mxCell id="F6hMKLf_0vPhQ7OQ2Ecv-22" value="&lt;b&gt;&lt;font style=&quot;font-size: 13px;&quot;&gt;xxiii&lt;/font&gt;&lt;/b&gt;" style="edgeLabel;html=1;align=center;verticalAlign=middle;resizable=0;points=[];" parent="_monGCf5ujj0BCtjY-OE-232" vertex="1" connectable="0">
          <mxGeometry x="-0.1854" relative="1" as="geometry">
            <mxPoint as="offset" />
          </mxGeometry>
        </mxCell>
        <mxCell id="_monGCf5ujj0BCtjY-OE-234" value="21" style="html=1;overflow=block;blockSpacing=1;whiteSpace=wrap;ellipse;fontSize=10;align=center;spacing=3.8;strokeOpacity=100;rounded=0;absoluteArcSize=1;arcSize=9;strokeWidth=NaN;lucidId=-s7nFN4nopYL;labelBackgroundColor=none;" parent="1" vertex="1">
          <mxGeometry x="475" y="2652" width="60" height="60" as="geometry" />
        </mxCell>
        <mxCell id="_monGCf5ujj0BCtjY-OE-235" value="" style="html=1;jettySize=18;whiteSpace=wrap;fontSize=13;strokeOpacity=100;strokeWidth=1.5;rounded=0;arcSize=12;edgeStyle=orthogonalEdgeStyle;startArrow=none;endArrow=block;endFill=1;exitX=0.5;exitY=1.013;exitPerimeter=0;entryX=0.5;entryY=-0.013;entryPerimeter=0;lucidId=at7nd8NEkhZJ;labelBackgroundColor=none;fontColor=default;" parent="1" source="_monGCf5ujj0BCtjY-OE-234" target="_monGCf5ujj0BCtjY-OE-237" edge="1">
          <mxGeometry width="100" height="100" relative="1" as="geometry">
            <Array as="points" />
          </mxGeometry>
        </mxCell>
        <mxCell id="F6hMKLf_0vPhQ7OQ2Ecv-24" value="&lt;b&gt;&lt;font style=&quot;font-size: 13px;&quot;&gt;xxiv&lt;/font&gt;&lt;/b&gt;" style="edgeLabel;html=1;align=center;verticalAlign=middle;resizable=0;points=[];" parent="_monGCf5ujj0BCtjY-OE-235" vertex="1" connectable="0">
          <mxGeometry x="-0.2493" relative="1" as="geometry">
            <mxPoint as="offset" />
          </mxGeometry>
        </mxCell>
        <mxCell id="_monGCf5ujj0BCtjY-OE-262" style="edgeStyle=orthogonalEdgeStyle;rounded=0;hachureGap=4;orthogonalLoop=1;jettySize=auto;html=1;exitX=0.5;exitY=1;exitDx=0;exitDy=0;entryX=0.5;entryY=0;entryDx=0;entryDy=0;fontFamily=Architects Daughter;fontSource=https%3A%2F%2Ffonts.googleapis.com%2Fcss%3Ffamily%3DArchitects%2BDaughter;labelBackgroundColor=none;fontColor=default;" parent="1" source="_monGCf5ujj0BCtjY-OE-237" target="_monGCf5ujj0BCtjY-OE-246" edge="1">
          <mxGeometry relative="1" as="geometry" />
        </mxCell>
        <mxCell id="F6hMKLf_0vPhQ7OQ2Ecv-25" value="&lt;b&gt;&lt;font style=&quot;font-size: 13px;&quot;&gt;xxv&lt;/font&gt;&lt;/b&gt;" style="edgeLabel;html=1;align=center;verticalAlign=middle;resizable=0;points=[];" parent="_monGCf5ujj0BCtjY-OE-262" vertex="1" connectable="0">
          <mxGeometry x="-0.4815" y="-1" relative="1" as="geometry">
            <mxPoint as="offset" />
          </mxGeometry>
        </mxCell>
        <mxCell id="_monGCf5ujj0BCtjY-OE-237" value="22" style="html=1;overflow=block;blockSpacing=1;whiteSpace=wrap;ellipse;fontSize=10;align=center;spacing=3.8;strokeOpacity=100;rounded=0;absoluteArcSize=1;arcSize=9;strokeWidth=NaN;lucidId=at7n2IR1nz86;labelBackgroundColor=none;" parent="1" vertex="1">
          <mxGeometry x="475" y="2742" width="60" height="60" as="geometry" />
        </mxCell>
        <mxCell id="-kKB3Z2_wNZSx5NGy5SM-60" style="edgeStyle=orthogonalEdgeStyle;rounded=0;orthogonalLoop=1;jettySize=auto;html=1;exitX=0;exitY=0.5;exitDx=0;exitDy=0;entryX=0.5;entryY=0;entryDx=0;entryDy=0;" parent="1" source="_monGCf5ujj0BCtjY-OE-246" target="_monGCf5ujj0BCtjY-OE-293" edge="1">
          <mxGeometry relative="1" as="geometry">
            <Array as="points">
              <mxPoint x="455" y="2868" />
              <mxPoint x="455" y="3303" />
              <mxPoint x="507" y="3303" />
            </Array>
          </mxGeometry>
        </mxCell>
        <mxCell id="-kKB3Z2_wNZSx5NGy5SM-61" value="&lt;b&gt;&lt;font style=&quot;font-size: 13px;&quot;&gt;xxvi&lt;/font&gt;&lt;/b&gt;" style="edgeLabel;html=1;align=center;verticalAlign=middle;resizable=0;points=[];" parent="-kKB3Z2_wNZSx5NGy5SM-60" vertex="1" connectable="0">
          <mxGeometry x="-0.1742" y="-3" relative="1" as="geometry">
            <mxPoint as="offset" />
          </mxGeometry>
        </mxCell>
        <mxCell id="_monGCf5ujj0BCtjY-OE-246" value="23" style="html=1;overflow=block;blockSpacing=1;whiteSpace=wrap;ellipse;fontSize=10;align=center;spacing=3.8;strokeOpacity=100;rounded=0;absoluteArcSize=1;arcSize=9;strokeWidth=NaN;lucidId=rt7nD08MM-FN;labelBackgroundColor=none;" parent="1" vertex="1">
          <mxGeometry x="475" y="2838" width="60" height="60" as="geometry" />
        </mxCell>
        <mxCell id="wq4RToqilr85XFKjYtNt-31" style="edgeStyle=orthogonalEdgeStyle;rounded=0;orthogonalLoop=1;jettySize=auto;html=1;exitX=0.5;exitY=1;exitDx=0;exitDy=0;entryX=0.5;entryY=0;entryDx=0;entryDy=0;" parent="1" source="_monGCf5ujj0BCtjY-OE-248" target="wq4RToqilr85XFKjYtNt-27" edge="1">
          <mxGeometry relative="1" as="geometry" />
        </mxCell>
        <mxCell id="wq4RToqilr85XFKjYtNt-35" value="&lt;b&gt;&lt;font style=&quot;font-size: 13px;&quot;&gt;xxviii&lt;/font&gt;&lt;/b&gt;" style="edgeLabel;html=1;align=center;verticalAlign=middle;resizable=0;points=[];" parent="wq4RToqilr85XFKjYtNt-31" vertex="1" connectable="0">
          <mxGeometry x="-0.1333" y="2" relative="1" as="geometry">
            <mxPoint as="offset" />
          </mxGeometry>
        </mxCell>
        <mxCell id="_monGCf5ujj0BCtjY-OE-248" value="24" style="html=1;overflow=block;blockSpacing=1;whiteSpace=wrap;ellipse;fontSize=10;align=center;spacing=3.8;strokeOpacity=100;rounded=0;absoluteArcSize=1;arcSize=9;strokeWidth=NaN;lucidId=2x7nmoQa2AxB;labelBackgroundColor=none;" parent="1" vertex="1">
          <mxGeometry x="535" y="2909" width="60" height="60" as="geometry" />
        </mxCell>
        <mxCell id="_monGCf5ujj0BCtjY-OE-251" style="edgeStyle=orthogonalEdgeStyle;rounded=0;hachureGap=4;orthogonalLoop=1;jettySize=auto;html=1;exitX=1;exitY=0.5;exitDx=0;exitDy=0;entryX=0.513;entryY=-0.027;entryDx=0;entryDy=0;entryPerimeter=0;fontFamily=Architects Daughter;fontSource=https%3A%2F%2Ffonts.googleapis.com%2Fcss%3Ffamily%3DArchitects%2BDaughter;labelBackgroundColor=none;fontColor=default;" parent="1" source="_monGCf5ujj0BCtjY-OE-246" target="_monGCf5ujj0BCtjY-OE-248" edge="1">
          <mxGeometry relative="1" as="geometry" />
        </mxCell>
        <mxCell id="F6hMKLf_0vPhQ7OQ2Ecv-30" value="&lt;b&gt;&lt;font style=&quot;font-size: 13px;&quot;&gt;xxvii&lt;/font&gt;&lt;/b&gt;" style="edgeLabel;html=1;align=center;verticalAlign=middle;resizable=0;points=[];" parent="_monGCf5ujj0BCtjY-OE-251" vertex="1" connectable="0">
          <mxGeometry x="0.3356" y="1" relative="1" as="geometry">
            <mxPoint as="offset" />
          </mxGeometry>
        </mxCell>
        <mxCell id="_monGCf5ujj0BCtjY-OE-293" value="29" style="html=1;overflow=block;blockSpacing=1;whiteSpace=wrap;ellipse;fontSize=10;align=center;spacing=3.8;strokeOpacity=100;rounded=0;absoluteArcSize=1;arcSize=9;strokeWidth=NaN;lucidId=Ws7nKWF0r7MZ;labelBackgroundColor=none;" parent="1" vertex="1">
          <mxGeometry x="478" y="3353" width="60" height="60" as="geometry" />
        </mxCell>
        <mxCell id="_monGCf5ujj0BCtjY-OE-294" value="" style="html=1;jettySize=18;whiteSpace=wrap;fontSize=13;strokeOpacity=100;strokeWidth=1.5;rounded=0;arcSize=12;edgeStyle=orthogonalEdgeStyle;startArrow=none;endArrow=block;endFill=1;exitX=0.5;exitY=1.013;exitPerimeter=0;entryX=0.5;entryY=-0.013;entryPerimeter=0;lucidId=4s7nOA23c9Lb;labelBackgroundColor=none;fontColor=default;" parent="1" source="_monGCf5ujj0BCtjY-OE-293" target="_monGCf5ujj0BCtjY-OE-296" edge="1">
          <mxGeometry width="100" height="100" relative="1" as="geometry">
            <Array as="points" />
          </mxGeometry>
        </mxCell>
        <mxCell id="F6hMKLf_0vPhQ7OQ2Ecv-47" value="&lt;b&gt;&lt;font style=&quot;font-size: 13px;&quot;&gt;xxxiv&lt;/font&gt;&lt;/b&gt;" style="edgeLabel;html=1;align=center;verticalAlign=middle;resizable=0;points=[];" parent="_monGCf5ujj0BCtjY-OE-294" vertex="1" connectable="0">
          <mxGeometry x="-0.4571" y="1" relative="1" as="geometry">
            <mxPoint as="offset" />
          </mxGeometry>
        </mxCell>
        <mxCell id="_monGCf5ujj0BCtjY-OE-296" value="30" style="html=1;overflow=block;blockSpacing=1;whiteSpace=wrap;ellipse;fontSize=10;align=center;spacing=3.8;strokeOpacity=100;rounded=0;absoluteArcSize=1;arcSize=9;strokeWidth=NaN;lucidId=4s7nlr1gQl5S;labelBackgroundColor=none;" parent="1" vertex="1">
          <mxGeometry x="478" y="3443" width="60" height="60" as="geometry" />
        </mxCell>
        <mxCell id="_monGCf5ujj0BCtjY-OE-297" value="" style="html=1;jettySize=18;whiteSpace=wrap;fontSize=13;strokeOpacity=100;strokeWidth=1.5;rounded=0;arcSize=12;edgeStyle=orthogonalEdgeStyle;startArrow=none;endArrow=block;endFill=1;exitX=0.5;exitY=1.013;exitPerimeter=0;entryX=0.5;entryY=-0.013;entryPerimeter=0;lucidId=-s7nuru1Xb1R;labelBackgroundColor=none;fontColor=default;" parent="1" source="_monGCf5ujj0BCtjY-OE-296" target="_monGCf5ujj0BCtjY-OE-299" edge="1">
          <mxGeometry width="100" height="100" relative="1" as="geometry">
            <Array as="points" />
          </mxGeometry>
        </mxCell>
        <mxCell id="F6hMKLf_0vPhQ7OQ2Ecv-48" value="&lt;b&gt;&lt;font style=&quot;font-size: 13px;&quot;&gt;xxxv&lt;/font&gt;&lt;/b&gt;" style="edgeLabel;html=1;align=center;verticalAlign=middle;resizable=0;points=[];" parent="_monGCf5ujj0BCtjY-OE-297" vertex="1" connectable="0">
          <mxGeometry x="-0.6036" y="1" relative="1" as="geometry">
            <mxPoint as="offset" />
          </mxGeometry>
        </mxCell>
        <mxCell id="_monGCf5ujj0BCtjY-OE-299" value="31" style="html=1;overflow=block;blockSpacing=1;whiteSpace=wrap;ellipse;fontSize=10;align=center;spacing=3.8;strokeOpacity=100;rounded=0;absoluteArcSize=1;arcSize=9;strokeWidth=NaN;lucidId=-s7nFN4nopYL;labelBackgroundColor=none;" parent="1" vertex="1">
          <mxGeometry x="478" y="3533" width="60" height="60" as="geometry" />
        </mxCell>
        <mxCell id="_monGCf5ujj0BCtjY-OE-300" value="" style="html=1;jettySize=18;whiteSpace=wrap;fontSize=13;strokeOpacity=100;strokeWidth=1.5;rounded=0;arcSize=12;edgeStyle=orthogonalEdgeStyle;startArrow=none;endArrow=block;endFill=1;exitX=0.5;exitY=1.013;exitPerimeter=0;entryX=0.5;entryY=-0.013;entryPerimeter=0;lucidId=at7nd8NEkhZJ;labelBackgroundColor=none;fontColor=default;" parent="1" source="_monGCf5ujj0BCtjY-OE-299" target="_monGCf5ujj0BCtjY-OE-303" edge="1">
          <mxGeometry width="100" height="100" relative="1" as="geometry">
            <Array as="points" />
          </mxGeometry>
        </mxCell>
        <mxCell id="F6hMKLf_0vPhQ7OQ2Ecv-49" value="&lt;b&gt;&lt;font style=&quot;font-size: 13px;&quot;&gt;xxxvi&lt;/font&gt;&lt;/b&gt;" style="edgeLabel;html=1;align=center;verticalAlign=middle;resizable=0;points=[];" parent="_monGCf5ujj0BCtjY-OE-300" vertex="1" connectable="0">
          <mxGeometry x="-0.4278" y="1" relative="1" as="geometry">
            <mxPoint as="offset" />
          </mxGeometry>
        </mxCell>
        <mxCell id="_monGCf5ujj0BCtjY-OE-303" value="32" style="html=1;overflow=block;blockSpacing=1;whiteSpace=wrap;ellipse;fontSize=10;align=center;spacing=3.8;strokeOpacity=100;rounded=0;absoluteArcSize=1;arcSize=9;strokeWidth=NaN;lucidId=at7n2IR1nz86;labelBackgroundColor=none;" parent="1" vertex="1">
          <mxGeometry x="478" y="3623" width="60" height="60" as="geometry" />
        </mxCell>
        <mxCell id="_monGCf5ujj0BCtjY-OE-308" value="" style="html=1;jettySize=18;whiteSpace=wrap;fontSize=13;strokeOpacity=100;strokeWidth=1.5;rounded=0;arcSize=12;edgeStyle=orthogonalEdgeStyle;startArrow=none;endArrow=block;endFill=1;exitX=0.5;exitY=1.013;exitPerimeter=0;entryX=0.5;entryY=-0.013;entryPerimeter=0;lucidId=-s7nuru1Xb1R;labelBackgroundColor=none;fontColor=default;" parent="1" edge="1">
          <mxGeometry width="100" height="100" relative="1" as="geometry">
            <Array as="points" />
            <mxPoint x="508" y="3683.0000000000005" as="sourcePoint" />
            <mxPoint x="508" y="3711.22" as="targetPoint" />
          </mxGeometry>
        </mxCell>
        <mxCell id="F6hMKLf_0vPhQ7OQ2Ecv-50" value="&lt;b&gt;&lt;font style=&quot;font-size: 13px;&quot;&gt;xxxvii&lt;/font&gt;&lt;/b&gt;" style="edgeLabel;html=1;align=center;verticalAlign=middle;resizable=0;points=[];" parent="_monGCf5ujj0BCtjY-OE-308" vertex="1" connectable="0">
          <mxGeometry x="-0.5157" relative="1" as="geometry">
            <mxPoint as="offset" />
          </mxGeometry>
        </mxCell>
        <mxCell id="_monGCf5ujj0BCtjY-OE-311" value="33" style="html=1;overflow=block;blockSpacing=1;whiteSpace=wrap;ellipse;fontSize=10;align=center;spacing=3.8;strokeOpacity=100;rounded=0;absoluteArcSize=1;arcSize=9;strokeWidth=NaN;lucidId=rt7nD08MM-FN;labelBackgroundColor=none;" parent="1" vertex="1">
          <mxGeometry x="475" y="3711.0000000000005" width="60" height="60" as="geometry" />
        </mxCell>
        <mxCell id="_monGCf5ujj0BCtjY-OE-334" style="edgeStyle=orthogonalEdgeStyle;rounded=0;hachureGap=4;orthogonalLoop=1;jettySize=auto;html=1;exitX=0.5;exitY=1;exitDx=0;exitDy=0;entryX=0.5;entryY=0;entryDx=0;entryDy=0;fontFamily=Architects Daughter;fontSource=https%3A%2F%2Ffonts.googleapis.com%2Fcss%3Ffamily%3DArchitects%2BDaughter;labelBackgroundColor=none;fontColor=default;" parent="1" source="_monGCf5ujj0BCtjY-OE-312" target="_monGCf5ujj0BCtjY-OE-318" edge="1">
          <mxGeometry relative="1" as="geometry" />
        </mxCell>
        <mxCell id="F6hMKLf_0vPhQ7OQ2Ecv-53" value="&lt;span style=&quot;font-size: 13px;&quot;&gt;&lt;b&gt;ixl&lt;/b&gt;&lt;/span&gt;" style="edgeLabel;html=1;align=center;verticalAlign=middle;resizable=0;points=[];" parent="_monGCf5ujj0BCtjY-OE-334" vertex="1" connectable="0">
          <mxGeometry x="-0.829" y="-1" relative="1" as="geometry">
            <mxPoint as="offset" />
          </mxGeometry>
        </mxCell>
        <mxCell id="_monGCf5ujj0BCtjY-OE-312" value="34" style="html=1;overflow=block;blockSpacing=1;whiteSpace=wrap;ellipse;fontSize=10;align=center;spacing=3.8;strokeOpacity=100;rounded=0;absoluteArcSize=1;arcSize=9;strokeWidth=NaN;lucidId=2x7nmoQa2AxB;labelBackgroundColor=none;" parent="1" vertex="1">
          <mxGeometry x="415" y="3782.0000000000005" width="60" height="60" as="geometry" />
        </mxCell>
        <mxCell id="_monGCf5ujj0BCtjY-OE-335" style="edgeStyle=orthogonalEdgeStyle;rounded=0;hachureGap=4;orthogonalLoop=1;jettySize=auto;html=1;exitX=0.5;exitY=1;exitDx=0;exitDy=0;entryX=0.5;entryY=0;entryDx=0;entryDy=0;fontFamily=Architects Daughter;fontSource=https%3A%2F%2Ffonts.googleapis.com%2Fcss%3Ffamily%3DArchitects%2BDaughter;labelBackgroundColor=none;fontColor=default;" parent="1" source="_monGCf5ujj0BCtjY-OE-313" target="_monGCf5ujj0BCtjY-OE-318" edge="1">
          <mxGeometry relative="1" as="geometry" />
        </mxCell>
        <mxCell id="F6hMKLf_0vPhQ7OQ2Ecv-54" value="&lt;span style=&quot;font-size: 13px;&quot;&gt;&lt;b&gt;xli&lt;/b&gt;&lt;/span&gt;" style="edgeLabel;html=1;align=center;verticalAlign=middle;resizable=0;points=[];" parent="_monGCf5ujj0BCtjY-OE-335" vertex="1" connectable="0">
          <mxGeometry x="-0.829" y="1" relative="1" as="geometry">
            <mxPoint as="offset" />
          </mxGeometry>
        </mxCell>
        <mxCell id="_monGCf5ujj0BCtjY-OE-313" value="35" style="html=1;overflow=block;blockSpacing=1;whiteSpace=wrap;ellipse;fontSize=10;align=center;spacing=3.8;strokeOpacity=100;rounded=0;absoluteArcSize=1;arcSize=9;strokeWidth=NaN;lucidId=2x7nmoQa2AxB;labelBackgroundColor=none;" parent="1" vertex="1">
          <mxGeometry x="535" y="3782.0000000000005" width="60" height="60" as="geometry" />
        </mxCell>
        <mxCell id="_monGCf5ujj0BCtjY-OE-314" style="edgeStyle=orthogonalEdgeStyle;rounded=0;hachureGap=4;orthogonalLoop=1;jettySize=auto;html=1;exitX=0;exitY=0.5;exitDx=0;exitDy=0;entryX=0.456;entryY=0.014;entryDx=0;entryDy=0;entryPerimeter=0;fontFamily=Architects Daughter;fontSource=https%3A%2F%2Ffonts.googleapis.com%2Fcss%3Ffamily%3DArchitects%2BDaughter;labelBackgroundColor=none;fontColor=default;" parent="1" source="_monGCf5ujj0BCtjY-OE-311" target="_monGCf5ujj0BCtjY-OE-312" edge="1">
          <mxGeometry relative="1" as="geometry" />
        </mxCell>
        <mxCell id="F6hMKLf_0vPhQ7OQ2Ecv-51" value="&lt;b&gt;&lt;font style=&quot;font-size: 13px;&quot;&gt;xxxviii&lt;/font&gt;&lt;/b&gt;" style="edgeLabel;html=1;align=center;verticalAlign=middle;resizable=0;points=[];" parent="_monGCf5ujj0BCtjY-OE-314" vertex="1" connectable="0">
          <mxGeometry x="0.3258" relative="1" as="geometry">
            <mxPoint as="offset" />
          </mxGeometry>
        </mxCell>
        <mxCell id="_monGCf5ujj0BCtjY-OE-316" style="edgeStyle=orthogonalEdgeStyle;rounded=0;hachureGap=4;orthogonalLoop=1;jettySize=auto;html=1;exitX=1;exitY=0.5;exitDx=0;exitDy=0;entryX=0.513;entryY=-0.027;entryDx=0;entryDy=0;entryPerimeter=0;fontFamily=Architects Daughter;fontSource=https%3A%2F%2Ffonts.googleapis.com%2Fcss%3Ffamily%3DArchitects%2BDaughter;labelBackgroundColor=none;fontColor=default;" parent="1" source="_monGCf5ujj0BCtjY-OE-311" target="_monGCf5ujj0BCtjY-OE-313" edge="1">
          <mxGeometry relative="1" as="geometry" />
        </mxCell>
        <mxCell id="F6hMKLf_0vPhQ7OQ2Ecv-52" value="&lt;b&gt;&lt;font style=&quot;font-size: 13px;&quot;&gt;xl&lt;/font&gt;&lt;/b&gt;" style="edgeLabel;html=1;align=center;verticalAlign=middle;resizable=0;points=[];" parent="_monGCf5ujj0BCtjY-OE-316" vertex="1" connectable="0">
          <mxGeometry x="0.3431" y="2" relative="1" as="geometry">
            <mxPoint as="offset" />
          </mxGeometry>
        </mxCell>
        <mxCell id="_monGCf5ujj0BCtjY-OE-318" value="36" style="html=1;overflow=block;blockSpacing=1;whiteSpace=wrap;ellipse;fontSize=10;align=center;spacing=3.8;strokeOpacity=100;rounded=0;absoluteArcSize=1;arcSize=9;strokeWidth=NaN;lucidId=er7n.wHx66S4;labelBackgroundColor=none;" parent="1" vertex="1">
          <mxGeometry x="475" y="3898.0000000000005" width="60" height="60" as="geometry" />
        </mxCell>
        <mxCell id="_monGCf5ujj0BCtjY-OE-319" value="" style="html=1;jettySize=18;whiteSpace=wrap;fontSize=13;strokeOpacity=100;strokeWidth=1.5;rounded=0;arcSize=12;edgeStyle=orthogonalEdgeStyle;startArrow=none;endArrow=block;endFill=1;exitX=0.5;exitY=1.013;exitPerimeter=0;entryX=0.5;entryY=-0.013;entryPerimeter=0;lucidId=gr7nAX82Irr~;labelBackgroundColor=none;fontColor=default;" parent="1" source="_monGCf5ujj0BCtjY-OE-318" target="_monGCf5ujj0BCtjY-OE-321" edge="1">
          <mxGeometry width="100" height="100" relative="1" as="geometry">
            <Array as="points" />
          </mxGeometry>
        </mxCell>
        <mxCell id="F6hMKLf_0vPhQ7OQ2Ecv-55" value="&lt;b&gt;&lt;font style=&quot;font-size: 13px;&quot;&gt;xlii&lt;/font&gt;&lt;/b&gt;" style="edgeLabel;html=1;align=center;verticalAlign=middle;resizable=0;points=[];" parent="_monGCf5ujj0BCtjY-OE-319" vertex="1" connectable="0">
          <mxGeometry x="-0.3692" y="1" relative="1" as="geometry">
            <mxPoint as="offset" />
          </mxGeometry>
        </mxCell>
        <mxCell id="_monGCf5ujj0BCtjY-OE-321" value="37" style="html=1;overflow=block;blockSpacing=1;whiteSpace=wrap;ellipse;fontSize=10;align=center;spacing=3.8;strokeOpacity=100;rounded=0;absoluteArcSize=1;arcSize=9;strokeWidth=NaN;lucidId=gr7n4lYt4T1x;labelBackgroundColor=none;" parent="1" vertex="1">
          <mxGeometry x="475" y="3988" width="60" height="60" as="geometry" />
        </mxCell>
        <mxCell id="_monGCf5ujj0BCtjY-OE-322" value="" style="html=1;jettySize=18;whiteSpace=wrap;fontSize=13;strokeOpacity=100;strokeWidth=1.5;rounded=0;arcSize=12;edgeStyle=orthogonalEdgeStyle;startArrow=none;endArrow=block;endFill=1;exitX=0.5;exitY=1.013;exitPerimeter=0;entryX=0.5;entryY=-0.013;entryPerimeter=0;lucidId=Tr7nbKWZ0~qz;labelBackgroundColor=none;fontColor=default;" parent="1" source="_monGCf5ujj0BCtjY-OE-321" target="_monGCf5ujj0BCtjY-OE-324" edge="1">
          <mxGeometry width="100" height="100" relative="1" as="geometry">
            <Array as="points" />
          </mxGeometry>
        </mxCell>
        <mxCell id="F6hMKLf_0vPhQ7OQ2Ecv-57" value="&lt;span style=&quot;font-size: 13px;&quot;&gt;&lt;b&gt;xliii&lt;/b&gt;&lt;/span&gt;" style="edgeLabel;html=1;align=center;verticalAlign=middle;resizable=0;points=[];" parent="_monGCf5ujj0BCtjY-OE-322" vertex="1" connectable="0">
          <mxGeometry x="-0.3399" relative="1" as="geometry">
            <mxPoint as="offset" />
          </mxGeometry>
        </mxCell>
        <mxCell id="_monGCf5ujj0BCtjY-OE-324" value="38" style="html=1;overflow=block;blockSpacing=1;whiteSpace=wrap;ellipse;fontSize=10;align=center;spacing=3.8;strokeOpacity=100;rounded=0;absoluteArcSize=1;arcSize=9;strokeWidth=NaN;lucidId=Tr7n12R.XfZG;labelBackgroundColor=none;" parent="1" vertex="1">
          <mxGeometry x="475" y="4078" width="60" height="60" as="geometry" />
        </mxCell>
        <mxCell id="_monGCf5ujj0BCtjY-OE-325" value="" style="html=1;jettySize=18;whiteSpace=wrap;fontSize=13;strokeOpacity=100;strokeWidth=1.5;rounded=0;arcSize=12;edgeStyle=orthogonalEdgeStyle;startArrow=none;endArrow=block;endFill=1;exitX=0.5;exitY=1.013;exitPerimeter=0;entryX=0.5;entryY=-0.013;entryPerimeter=0;lucidId=Ws7nHzFQJizJ;labelBackgroundColor=none;fontColor=default;" parent="1" source="_monGCf5ujj0BCtjY-OE-324" target="_monGCf5ujj0BCtjY-OE-327" edge="1">
          <mxGeometry width="100" height="100" relative="1" as="geometry">
            <Array as="points" />
          </mxGeometry>
        </mxCell>
        <mxCell id="F6hMKLf_0vPhQ7OQ2Ecv-58" value="&lt;b&gt;&lt;font style=&quot;font-size: 13px;&quot;&gt;xliv&lt;/font&gt;&lt;/b&gt;" style="edgeLabel;html=1;align=center;verticalAlign=middle;resizable=0;points=[];" parent="_monGCf5ujj0BCtjY-OE-325" vertex="1" connectable="0">
          <mxGeometry x="-0.4864" y="-1" relative="1" as="geometry">
            <mxPoint as="offset" />
          </mxGeometry>
        </mxCell>
        <mxCell id="_monGCf5ujj0BCtjY-OE-327" value="39" style="html=1;overflow=block;blockSpacing=1;whiteSpace=wrap;ellipse;fontSize=10;align=center;spacing=3.8;strokeOpacity=100;rounded=0;absoluteArcSize=1;arcSize=9;strokeWidth=NaN;lucidId=Ws7nKWF0r7MZ;labelBackgroundColor=none;" parent="1" vertex="1">
          <mxGeometry x="475" y="4168" width="60" height="60" as="geometry" />
        </mxCell>
        <mxCell id="_monGCf5ujj0BCtjY-OE-328" value="" style="html=1;jettySize=18;whiteSpace=wrap;fontSize=13;strokeOpacity=100;strokeWidth=1.5;rounded=0;arcSize=12;edgeStyle=orthogonalEdgeStyle;startArrow=none;endArrow=block;endFill=1;exitX=0.5;exitY=1.013;exitPerimeter=0;entryX=0.5;entryY=-0.013;entryPerimeter=0;lucidId=4s7nOA23c9Lb;labelBackgroundColor=none;fontColor=default;" parent="1" source="_monGCf5ujj0BCtjY-OE-327" target="_monGCf5ujj0BCtjY-OE-330" edge="1">
          <mxGeometry width="100" height="100" relative="1" as="geometry">
            <Array as="points" />
          </mxGeometry>
        </mxCell>
        <mxCell id="F6hMKLf_0vPhQ7OQ2Ecv-59" value="&lt;b&gt;&lt;font style=&quot;font-size: 13px;&quot;&gt;xlv&lt;/font&gt;&lt;/b&gt;" style="edgeLabel;html=1;align=center;verticalAlign=middle;resizable=0;points=[];" parent="_monGCf5ujj0BCtjY-OE-328" vertex="1" connectable="0">
          <mxGeometry x="-0.3106" y="2" relative="1" as="geometry">
            <mxPoint as="offset" />
          </mxGeometry>
        </mxCell>
        <mxCell id="_monGCf5ujj0BCtjY-OE-330" value="40" style="html=1;overflow=block;blockSpacing=1;whiteSpace=wrap;ellipse;fontSize=10;align=center;spacing=3.8;strokeOpacity=100;rounded=0;absoluteArcSize=1;arcSize=9;strokeWidth=NaN;lucidId=4s7nlr1gQl5S;labelBackgroundColor=none;" parent="1" vertex="1">
          <mxGeometry x="475" y="4258" width="60" height="60" as="geometry" />
        </mxCell>
        <mxCell id="_monGCf5ujj0BCtjY-OE-331" value="" style="html=1;jettySize=18;whiteSpace=wrap;fontSize=13;strokeOpacity=100;strokeWidth=1.5;rounded=0;arcSize=12;edgeStyle=orthogonalEdgeStyle;startArrow=none;endArrow=block;endFill=1;exitX=0.5;exitY=1.013;exitPerimeter=0;entryX=0.5;entryY=-0.013;entryPerimeter=0;lucidId=-s7nuru1Xb1R;labelBackgroundColor=none;fontColor=default;" parent="1" source="_monGCf5ujj0BCtjY-OE-330" target="_monGCf5ujj0BCtjY-OE-333" edge="1">
          <mxGeometry width="100" height="100" relative="1" as="geometry">
            <Array as="points" />
          </mxGeometry>
        </mxCell>
        <mxCell id="F6hMKLf_0vPhQ7OQ2Ecv-60" value="&lt;b&gt;&lt;font style=&quot;font-size: 13px;&quot;&gt;xlvi&lt;/font&gt;&lt;/b&gt;" style="edgeLabel;html=1;align=center;verticalAlign=middle;resizable=0;points=[];" parent="_monGCf5ujj0BCtjY-OE-331" vertex="1" connectable="0">
          <mxGeometry x="-0.6622" y="1" relative="1" as="geometry">
            <mxPoint y="4" as="offset" />
          </mxGeometry>
        </mxCell>
        <mxCell id="_monGCf5ujj0BCtjY-OE-346" style="edgeStyle=orthogonalEdgeStyle;rounded=0;hachureGap=4;orthogonalLoop=1;jettySize=auto;html=1;exitX=0.5;exitY=1;exitDx=0;exitDy=0;entryX=0.5;entryY=0;entryDx=0;entryDy=0;fontFamily=Architects Daughter;fontSource=https%3A%2F%2Ffonts.googleapis.com%2Fcss%3Ffamily%3DArchitects%2BDaughter;labelBackgroundColor=none;fontColor=default;" parent="1" source="_monGCf5ujj0BCtjY-OE-333" target="_monGCf5ujj0BCtjY-OE-339" edge="1">
          <mxGeometry relative="1" as="geometry" />
        </mxCell>
        <mxCell id="F6hMKLf_0vPhQ7OQ2Ecv-61" value="&lt;b&gt;&lt;font style=&quot;font-size: 12px;&quot;&gt;xlvii&lt;/font&gt;&lt;/b&gt;" style="edgeLabel;html=1;align=center;verticalAlign=middle;resizable=0;points=[];" parent="_monGCf5ujj0BCtjY-OE-346" vertex="1" connectable="0">
          <mxGeometry x="-0.6754" y="1" relative="1" as="geometry">
            <mxPoint x="-1" y="4" as="offset" />
          </mxGeometry>
        </mxCell>
        <mxCell id="_monGCf5ujj0BCtjY-OE-333" value="41" style="html=1;overflow=block;blockSpacing=1;whiteSpace=wrap;ellipse;fontSize=10;align=center;spacing=3.8;strokeOpacity=100;rounded=0;absoluteArcSize=1;arcSize=9;strokeWidth=NaN;lucidId=-s7nFN4nopYL;labelBackgroundColor=none;" parent="1" vertex="1">
          <mxGeometry x="475" y="4345.11" width="60" height="60" as="geometry" />
        </mxCell>
        <mxCell id="_monGCf5ujj0BCtjY-OE-339" value="42" style="html=1;overflow=block;blockSpacing=1;whiteSpace=wrap;ellipse;fontSize=10;align=center;spacing=3.8;strokeOpacity=100;rounded=0;absoluteArcSize=1;arcSize=9;strokeWidth=NaN;lucidId=rt7nD08MM-FN;labelBackgroundColor=none;" parent="1" vertex="1">
          <mxGeometry x="475" y="4427" width="60" height="60" as="geometry" />
        </mxCell>
        <mxCell id="_monGCf5ujj0BCtjY-OE-340" value="45" style="html=1;overflow=block;blockSpacing=1;whiteSpace=wrap;ellipse;fontSize=10;align=center;spacing=3.8;strokeOpacity=100;rounded=0;absoluteArcSize=1;arcSize=9;strokeWidth=NaN;lucidId=2x7nmoQa2AxB;labelBackgroundColor=none;" parent="1" vertex="1">
          <mxGeometry x="535" y="4593" width="60" height="60" as="geometry" />
        </mxCell>
        <mxCell id="_monGCf5ujj0BCtjY-OE-341" value="44" style="html=1;overflow=block;blockSpacing=1;whiteSpace=wrap;ellipse;fontSize=10;align=center;spacing=3.8;strokeOpacity=100;rounded=0;absoluteArcSize=1;arcSize=9;strokeWidth=NaN;lucidId=2x7nmoQa2AxB;labelBackgroundColor=none;" parent="1" vertex="1">
          <mxGeometry x="535" y="4498" width="60" height="60" as="geometry" />
        </mxCell>
        <mxCell id="_monGCf5ujj0BCtjY-OE-342" style="edgeStyle=orthogonalEdgeStyle;rounded=0;hachureGap=4;orthogonalLoop=1;jettySize=auto;html=1;entryX=0.456;entryY=0.014;entryDx=0;entryDy=0;entryPerimeter=0;fontFamily=Architects Daughter;fontSource=https%3A%2F%2Ffonts.googleapis.com%2Fcss%3Ffamily%3DArchitects%2BDaughter;labelBackgroundColor=none;fontColor=default;" parent="1" target="_monGCf5ujj0BCtjY-OE-340" edge="1">
          <mxGeometry relative="1" as="geometry">
            <mxPoint x="565" y="4559" as="sourcePoint" />
          </mxGeometry>
        </mxCell>
        <mxCell id="F6hMKLf_0vPhQ7OQ2Ecv-65" value="&lt;b&gt;&lt;font style=&quot;font-size: 13px;&quot;&gt;li&lt;/font&gt;&lt;/b&gt;" style="edgeLabel;html=1;align=center;verticalAlign=middle;resizable=0;points=[];" parent="_monGCf5ujj0BCtjY-OE-342" vertex="1" connectable="0">
          <mxGeometry x="-0.4612" y="1" relative="1" as="geometry">
            <mxPoint as="offset" />
          </mxGeometry>
        </mxCell>
        <mxCell id="_monGCf5ujj0BCtjY-OE-344" style="edgeStyle=orthogonalEdgeStyle;rounded=0;hachureGap=4;orthogonalLoop=1;jettySize=auto;html=1;exitX=1;exitY=0.5;exitDx=0;exitDy=0;entryX=0.513;entryY=-0.027;entryDx=0;entryDy=0;entryPerimeter=0;fontFamily=Architects Daughter;fontSource=https%3A%2F%2Ffonts.googleapis.com%2Fcss%3Ffamily%3DArchitects%2BDaughter;labelBackgroundColor=none;fontColor=default;" parent="1" source="_monGCf5ujj0BCtjY-OE-339" target="_monGCf5ujj0BCtjY-OE-341" edge="1">
          <mxGeometry relative="1" as="geometry" />
        </mxCell>
        <mxCell id="F6hMKLf_0vPhQ7OQ2Ecv-64" value="&lt;b&gt;&lt;font style=&quot;font-size: 13px;&quot;&gt;l&lt;/font&gt;&lt;/b&gt;" style="edgeLabel;html=1;align=center;verticalAlign=middle;resizable=0;points=[];" parent="_monGCf5ujj0BCtjY-OE-344" vertex="1" connectable="0">
          <mxGeometry x="0.374" relative="1" as="geometry">
            <mxPoint as="offset" />
          </mxGeometry>
        </mxCell>
        <mxCell id="_monGCf5ujj0BCtjY-OE-348" value="43" style="html=1;overflow=block;blockSpacing=1;whiteSpace=wrap;ellipse;fontSize=10;align=center;spacing=3.8;strokeOpacity=100;rounded=0;absoluteArcSize=1;arcSize=9;strokeWidth=NaN;lucidId=2x7nmoQa2AxB;labelBackgroundColor=none;" parent="1" vertex="1">
          <mxGeometry x="415" y="4546.116289818854" width="60" height="60" as="geometry" />
        </mxCell>
        <mxCell id="_monGCf5ujj0BCtjY-OE-350" value="" style="edgeStyle=orthogonalEdgeStyle;rounded=0;hachureGap=4;orthogonalLoop=1;jettySize=auto;html=1;exitX=0;exitY=0.5;exitDx=0;exitDy=0;entryX=0.458;entryY=-0.003;entryDx=0;entryDy=0;entryPerimeter=0;fontFamily=Architects Daughter;fontSource=https%3A%2F%2Ffonts.googleapis.com%2Fcss%3Ffamily%3DArchitects%2BDaughter;labelBackgroundColor=none;fontColor=default;" parent="1" source="_monGCf5ujj0BCtjY-OE-339" target="_monGCf5ujj0BCtjY-OE-348" edge="1">
          <mxGeometry relative="1" as="geometry" />
        </mxCell>
        <mxCell id="F6hMKLf_0vPhQ7OQ2Ecv-62" value="&lt;b&gt;&lt;font style=&quot;font-size: 13px;&quot;&gt;xlviii&lt;/font&gt;&lt;/b&gt;" style="edgeLabel;html=1;align=center;verticalAlign=middle;resizable=0;points=[];" parent="_monGCf5ujj0BCtjY-OE-350" vertex="1" connectable="0">
          <mxGeometry x="0.0897" relative="1" as="geometry">
            <mxPoint as="offset" />
          </mxGeometry>
        </mxCell>
        <mxCell id="_monGCf5ujj0BCtjY-OE-351" value="46" style="html=1;overflow=block;blockSpacing=1;whiteSpace=wrap;ellipse;fontSize=10;align=center;spacing=3.8;strokeOpacity=100;rounded=0;absoluteArcSize=1;arcSize=9;strokeWidth=NaN;lucidId=2x7nmoQa2AxB;labelBackgroundColor=none;" parent="1" vertex="1">
          <mxGeometry x="475" y="4693" width="60" height="60" as="geometry" />
        </mxCell>
        <mxCell id="_monGCf5ujj0BCtjY-OE-352" style="edgeStyle=orthogonalEdgeStyle;rounded=0;hachureGap=4;orthogonalLoop=1;jettySize=auto;html=1;exitX=0.5;exitY=1;exitDx=0;exitDy=0;entryX=0.582;entryY=0.016;entryDx=0;entryDy=0;entryPerimeter=0;fontFamily=Architects Daughter;fontSource=https%3A%2F%2Ffonts.googleapis.com%2Fcss%3Ffamily%3DArchitects%2BDaughter;labelBackgroundColor=none;fontColor=default;" parent="1" source="_monGCf5ujj0BCtjY-OE-340" target="_monGCf5ujj0BCtjY-OE-351" edge="1">
          <mxGeometry relative="1" as="geometry" />
        </mxCell>
        <mxCell id="F6hMKLf_0vPhQ7OQ2Ecv-66" value="&lt;b&gt;&lt;font style=&quot;font-size: 13px;&quot;&gt;lii&lt;/font&gt;&lt;/b&gt;" style="edgeLabel;html=1;align=center;verticalAlign=middle;resizable=0;points=[];" parent="_monGCf5ujj0BCtjY-OE-352" vertex="1" connectable="0">
          <mxGeometry x="-0.8056" y="1" relative="1" as="geometry">
            <mxPoint as="offset" />
          </mxGeometry>
        </mxCell>
        <mxCell id="_monGCf5ujj0BCtjY-OE-353" style="edgeStyle=orthogonalEdgeStyle;rounded=0;hachureGap=4;orthogonalLoop=1;jettySize=auto;html=1;exitX=0.5;exitY=1;exitDx=0;exitDy=0;entryX=0.57;entryY=0.006;entryDx=0;entryDy=0;entryPerimeter=0;fontFamily=Architects Daughter;fontSource=https%3A%2F%2Ffonts.googleapis.com%2Fcss%3Ffamily%3DArchitects%2BDaughter;labelBackgroundColor=none;fontColor=default;" parent="1" source="_monGCf5ujj0BCtjY-OE-348" target="_monGCf5ujj0BCtjY-OE-351" edge="1">
          <mxGeometry relative="1" as="geometry">
            <Array as="points">
              <mxPoint x="445" y="4672" />
              <mxPoint x="509" y="4672" />
            </Array>
          </mxGeometry>
        </mxCell>
        <mxCell id="F6hMKLf_0vPhQ7OQ2Ecv-63" value="&lt;span style=&quot;font-size: 13px;&quot;&gt;&lt;b&gt;il&lt;/b&gt;&lt;/span&gt;" style="edgeLabel;html=1;align=center;verticalAlign=middle;resizable=0;points=[];" parent="_monGCf5ujj0BCtjY-OE-353" vertex="1" connectable="0">
          <mxGeometry x="-0.6648" y="1" relative="1" as="geometry">
            <mxPoint as="offset" />
          </mxGeometry>
        </mxCell>
        <mxCell id="QhYaTNnM0dSVYR8I3ck6-1" value="1" style="html=1;overflow=block;blockSpacing=1;whiteSpace=wrap;ellipse;fontSize=10;align=center;spacing=3.8;strokeOpacity=100;rounded=0;absoluteArcSize=1;arcSize=9;strokeWidth=NaN;lucidId=er7n.wHx66S4;labelBackgroundColor=none;" parent="1" vertex="1">
          <mxGeometry x="292" y="1055" width="60" height="60" as="geometry" />
        </mxCell>
        <mxCell id="QhYaTNnM0dSVYR8I3ck6-2" value="" style="html=1;jettySize=18;whiteSpace=wrap;fontSize=13;strokeOpacity=100;strokeWidth=1.5;rounded=0;arcSize=12;edgeStyle=orthogonalEdgeStyle;startArrow=none;endArrow=block;endFill=1;exitX=0.5;exitY=1.013;exitPerimeter=0;entryX=0.5;entryY=-0.013;entryPerimeter=0;lucidId=gr7nAX82Irr~;labelBackgroundColor=none;fontColor=default;" parent="1" source="QhYaTNnM0dSVYR8I3ck6-1" target="QhYaTNnM0dSVYR8I3ck6-4" edge="1">
          <mxGeometry width="100" height="100" relative="1" as="geometry">
            <Array as="points" />
          </mxGeometry>
        </mxCell>
        <mxCell id="QhYaTNnM0dSVYR8I3ck6-3" value="&lt;b&gt;&lt;font style=&quot;font-size: 13px;&quot;&gt;i&lt;/font&gt;&lt;/b&gt;" style="edgeLabel;html=1;align=center;verticalAlign=middle;resizable=0;points=[];" parent="QhYaTNnM0dSVYR8I3ck6-2" vertex="1" connectable="0">
          <mxGeometry x="-0.3822" relative="1" as="geometry">
            <mxPoint as="offset" />
          </mxGeometry>
        </mxCell>
        <mxCell id="QhYaTNnM0dSVYR8I3ck6-4" value="2" style="html=1;overflow=block;blockSpacing=1;whiteSpace=wrap;ellipse;fontSize=10;align=center;spacing=3.8;strokeOpacity=100;rounded=0;absoluteArcSize=1;arcSize=9;strokeWidth=NaN;lucidId=gr7n4lYt4T1x;labelBackgroundColor=none;" parent="1" vertex="1">
          <mxGeometry x="292" y="1145" width="60" height="60" as="geometry" />
        </mxCell>
        <mxCell id="QhYaTNnM0dSVYR8I3ck6-5" value="" style="html=1;jettySize=18;whiteSpace=wrap;fontSize=13;strokeOpacity=100;strokeWidth=1.5;rounded=0;arcSize=12;edgeStyle=orthogonalEdgeStyle;startArrow=none;endArrow=block;endFill=1;exitX=0.5;exitY=1.013;exitPerimeter=0;entryX=0.5;entryY=-0.013;entryPerimeter=0;lucidId=Tr7nbKWZ0~qz;labelBackgroundColor=none;fontColor=default;" parent="1" source="QhYaTNnM0dSVYR8I3ck6-4" edge="1">
          <mxGeometry width="100" height="100" relative="1" as="geometry">
            <Array as="points" />
            <mxPoint x="322" y="1234" as="targetPoint" />
          </mxGeometry>
        </mxCell>
        <mxCell id="QhYaTNnM0dSVYR8I3ck6-6" value="&lt;b&gt;&lt;font style=&quot;font-size: 13px;&quot;&gt;ii&lt;/font&gt;&lt;/b&gt;" style="edgeLabel;html=1;align=center;verticalAlign=middle;resizable=0;points=[];" parent="QhYaTNnM0dSVYR8I3ck6-5" vertex="1" connectable="0">
          <mxGeometry x="-0.3815" relative="1" as="geometry">
            <mxPoint as="offset" />
          </mxGeometry>
        </mxCell>
        <mxCell id="wq4RToqilr85XFKjYtNt-27" value="25" style="html=1;overflow=block;blockSpacing=1;whiteSpace=wrap;ellipse;fontSize=10;align=center;spacing=3.8;strokeOpacity=100;rounded=0;absoluteArcSize=1;arcSize=9;strokeWidth=NaN;lucidId=-s7nFN4nopYL;labelBackgroundColor=none;" parent="1" vertex="1">
          <mxGeometry x="535" y="2999" width="60" height="60" as="geometry" />
        </mxCell>
        <mxCell id="wq4RToqilr85XFKjYtNt-28" value="" style="html=1;jettySize=18;whiteSpace=wrap;fontSize=13;strokeOpacity=100;strokeWidth=1.5;rounded=0;arcSize=12;edgeStyle=orthogonalEdgeStyle;startArrow=none;endArrow=block;endFill=1;exitX=0.5;exitY=1.013;exitPerimeter=0;entryX=0.5;entryY=-0.013;entryPerimeter=0;lucidId=at7nd8NEkhZJ;labelBackgroundColor=none;fontColor=default;" parent="1" source="wq4RToqilr85XFKjYtNt-27" edge="1">
          <mxGeometry width="100" height="100" relative="1" as="geometry">
            <Array as="points" />
            <mxPoint x="565" y="3088.22" as="targetPoint" />
          </mxGeometry>
        </mxCell>
        <mxCell id="wq4RToqilr85XFKjYtNt-29" value="&lt;b&gt;&lt;font style=&quot;font-size: 13px;&quot;&gt;xxix&lt;/font&gt;&lt;/b&gt;" style="edgeLabel;html=1;align=center;verticalAlign=middle;resizable=0;points=[];" parent="wq4RToqilr85XFKjYtNt-28" vertex="1" connectable="0">
          <mxGeometry x="-0.2493" relative="1" as="geometry">
            <mxPoint as="offset" />
          </mxGeometry>
        </mxCell>
        <mxCell id="-kKB3Z2_wNZSx5NGy5SM-41" value="26" style="html=1;overflow=block;blockSpacing=1;whiteSpace=wrap;ellipse;fontSize=10;align=center;spacing=3.8;strokeOpacity=100;rounded=0;absoluteArcSize=1;arcSize=9;strokeWidth=NaN;lucidId=rt7nD08MM-FN;labelBackgroundColor=none;" parent="1" vertex="1">
          <mxGeometry x="534" y="3086" width="60" height="60" as="geometry" />
        </mxCell>
        <mxCell id="-kKB3Z2_wNZSx5NGy5SM-45" style="edgeStyle=orthogonalEdgeStyle;rounded=0;orthogonalLoop=1;jettySize=auto;html=1;exitX=0.5;exitY=1;exitDx=0;exitDy=0;entryX=0.5;entryY=0;entryDx=0;entryDy=0;" parent="1" source="-kKB3Z2_wNZSx5NGy5SM-47" target="-kKB3Z2_wNZSx5NGy5SM-52" edge="1">
          <mxGeometry relative="1" as="geometry" />
        </mxCell>
        <mxCell id="-kKB3Z2_wNZSx5NGy5SM-46" value="&lt;b&gt;&lt;font style=&quot;font-size: 13px;&quot;&gt;xxxii&lt;/font&gt;&lt;/b&gt;" style="edgeLabel;html=1;align=center;verticalAlign=middle;resizable=0;points=[];" parent="-kKB3Z2_wNZSx5NGy5SM-45" vertex="1" connectable="0">
          <mxGeometry x="-0.1333" y="2" relative="1" as="geometry">
            <mxPoint as="offset" />
          </mxGeometry>
        </mxCell>
        <mxCell id="-kKB3Z2_wNZSx5NGy5SM-47" value="27" style="html=1;overflow=block;blockSpacing=1;whiteSpace=wrap;ellipse;fontSize=10;align=center;spacing=3.8;strokeOpacity=100;rounded=0;absoluteArcSize=1;arcSize=9;strokeWidth=NaN;lucidId=2x7nmoQa2AxB;labelBackgroundColor=none;" parent="1" vertex="1">
          <mxGeometry x="594" y="3157" width="60" height="60" as="geometry" />
        </mxCell>
        <mxCell id="-kKB3Z2_wNZSx5NGy5SM-48" style="edgeStyle=orthogonalEdgeStyle;rounded=0;hachureGap=4;orthogonalLoop=1;jettySize=auto;html=1;exitX=0;exitY=0.5;exitDx=0;exitDy=0;entryX=0.5;entryY=0;entryDx=0;entryDy=0;fontFamily=Architects Daughter;fontSource=https%3A%2F%2Ffonts.googleapis.com%2Fcss%3Ffamily%3DArchitects%2BDaughter;labelBackgroundColor=none;fontColor=default;" parent="1" source="-kKB3Z2_wNZSx5NGy5SM-41" target="_monGCf5ujj0BCtjY-OE-293" edge="1">
          <mxGeometry relative="1" as="geometry">
            <mxPoint x="501.3599999999999" y="3157.84" as="targetPoint" />
          </mxGeometry>
        </mxCell>
        <mxCell id="-kKB3Z2_wNZSx5NGy5SM-49" value="&lt;b&gt;&lt;font style=&quot;font-size: 13px;&quot;&gt;xxx&lt;/font&gt;&lt;/b&gt;" style="edgeLabel;html=1;align=center;verticalAlign=middle;resizable=0;points=[];" parent="-kKB3Z2_wNZSx5NGy5SM-48" vertex="1" connectable="0">
          <mxGeometry x="0.3723" y="-1" relative="1" as="geometry">
            <mxPoint as="offset" />
          </mxGeometry>
        </mxCell>
        <mxCell id="-kKB3Z2_wNZSx5NGy5SM-50" style="edgeStyle=orthogonalEdgeStyle;rounded=0;hachureGap=4;orthogonalLoop=1;jettySize=auto;html=1;exitX=1;exitY=0.5;exitDx=0;exitDy=0;entryX=0.513;entryY=-0.027;entryDx=0;entryDy=0;entryPerimeter=0;fontFamily=Architects Daughter;fontSource=https%3A%2F%2Ffonts.googleapis.com%2Fcss%3Ffamily%3DArchitects%2BDaughter;labelBackgroundColor=none;fontColor=default;" parent="1" source="-kKB3Z2_wNZSx5NGy5SM-41" target="-kKB3Z2_wNZSx5NGy5SM-47" edge="1">
          <mxGeometry relative="1" as="geometry" />
        </mxCell>
        <mxCell id="-kKB3Z2_wNZSx5NGy5SM-51" value="&lt;b&gt;&lt;font style=&quot;font-size: 13px;&quot;&gt;xxxi&lt;/font&gt;&lt;/b&gt;" style="edgeLabel;html=1;align=center;verticalAlign=middle;resizable=0;points=[];" parent="-kKB3Z2_wNZSx5NGy5SM-50" vertex="1" connectable="0">
          <mxGeometry x="0.3356" y="1" relative="1" as="geometry">
            <mxPoint as="offset" />
          </mxGeometry>
        </mxCell>
        <mxCell id="-kKB3Z2_wNZSx5NGy5SM-52" value="28" style="html=1;overflow=block;blockSpacing=1;whiteSpace=wrap;ellipse;fontSize=10;align=center;spacing=3.8;strokeOpacity=100;rounded=0;absoluteArcSize=1;arcSize=9;strokeWidth=NaN;lucidId=-s7nFN4nopYL;labelBackgroundColor=none;" parent="1" vertex="1">
          <mxGeometry x="594" y="3247" width="60" height="60" as="geometry" />
        </mxCell>
        <mxCell id="-kKB3Z2_wNZSx5NGy5SM-53" value="" style="html=1;jettySize=18;whiteSpace=wrap;fontSize=13;strokeOpacity=100;strokeWidth=1.5;rounded=0;arcSize=12;edgeStyle=orthogonalEdgeStyle;startArrow=none;endArrow=block;endFill=1;exitX=0.5;exitY=1.013;exitPerimeter=0;lucidId=at7nd8NEkhZJ;labelBackgroundColor=none;fontColor=default;entryX=0.5;entryY=0;entryDx=0;entryDy=0;" parent="1" source="-kKB3Z2_wNZSx5NGy5SM-52" target="_monGCf5ujj0BCtjY-OE-293" edge="1">
          <mxGeometry width="100" height="100" relative="1" as="geometry">
            <Array as="points" />
            <mxPoint x="627" y="3347" as="targetPoint" />
          </mxGeometry>
        </mxCell>
        <mxCell id="-kKB3Z2_wNZSx5NGy5SM-54" value="&lt;b&gt;&lt;font style=&quot;font-size: 13px;&quot;&gt;xxxiii&amp;nbsp;&lt;/font&gt;&lt;/b&gt;" style="edgeLabel;html=1;align=center;verticalAlign=middle;resizable=0;points=[];" parent="-kKB3Z2_wNZSx5NGy5SM-53" vertex="1" connectable="0">
          <mxGeometry x="-0.2493" relative="1" as="geometry">
            <mxPoint as="offset" />
          </mxGeometry>
        </mxCell>
      </root>
    </mxGraphModel>
  </diagram>
</mxfile>
